<svg xmlns="http://www.w3.org/2000/svg" xmlns:xlink="http://www.w3.org/1999/xlink" viewBox="0 0 1920 1007.47"><defs><style>.cls-1{isolation:isolate;}.cls-2{fill:url(#Degradado_sin_nombre_100);}.cls-3,.cls-6{fill:#212529;}.cls-4{fill:none;stroke-miterlimit:10;opacity:0.25;stroke:url(#Degradado_sin_nombre_100-2);}.cls-5{fill:#b2b3b4;}.cls-6{font-size:31.89px;font-family:Poppins-Regular, Poppins;}.cls-7{fill:url(#Degradado_sin_nombre_9);}.cls-8{fill:url(#Degradado_sin_nombre_14);}.cls-53,.cls-54,.cls-55,.cls-56,.cls-9{mix-blend-mode:screen;}.cls-9{fill:url(#Degradado_sin_nombre_173);}.cls-10,.cls-11,.cls-12,.cls-13,.cls-14,.cls-16,.cls-17,.cls-18,.cls-19,.cls-20,.cls-21,.cls-22,.cls-23,.cls-24,.cls-26,.cls-28,.cls-30,.cls-31,.cls-33,.cls-34,.cls-35,.cls-36,.cls-37,.cls-38,.cls-39,.cls-40,.cls-41,.cls-42,.cls-44,.cls-45,.cls-46,.cls-47,.cls-48,.cls-50,.cls-51,.cls-52{fill-rule:evenodd;}.cls-10{fill:url(#Áåçûìÿííûé_ãðàäèåíò_269);}.cls-11{fill:url(#Áåçûìÿííûé_ãðàäèåíò_269-2);}.cls-12{fill:url(#Áåçûìÿííûé_ãðàäèåíò_229);}.cls-13,.cls-24,.cls-32{fill:#31165f;}.cls-14{fill:url(#Áåçûìÿííûé_ãðàäèåíò_187);}.cls-15,.cls-16{fill:#53345f;}.cls-17{fill:url(#Áåçûìÿííûé_ãðàäèåíò_136);}.cls-18,.cls-19,.cls-26{mix-blend-mode:multiply;}.cls-18,.cls-19,.cls-24,.cls-26,.cls-46{opacity:0.5;}.cls-18{fill:url(#Áåçûìÿííûé_ãðàäèåíò_183);}.cls-19{fill:url(#Áåçûìÿííûé_ãðàäèåíò_183-2);}.cls-20{fill:url(#Áåçûìÿííûé_ãðàäèåíò_176);}.cls-21{fill:#a6345f;}.cls-22{fill:url(#Áåçûìÿííûé_ãðàäèåíò_129);}.cls-23{fill:url(#Áåçûìÿííûé_ãðàäèåíò_176-2);}.cls-25,.cls-43,.cls-46,.cls-47,.cls-48{fill:#fff;}.cls-26{fill:url(#Áåçûìÿííûé_ãðàäèåíò_183-3);}.cls-27{fill:url(#Áåçûìÿííûé_ãðàäèåíò_220);}.cls-28{fill:url(#Áåçûìÿííûé_ãðàäèåíò_199);}.cls-29{fill:url(#Áåçûìÿííûé_ãðàäèåíò_220-2);}.cls-30{fill:url(#Áåçûìÿííûé_ãðàäèåíò_199-2);}.cls-31{fill:url(#Áåçûìÿííûé_ãðàäèåíò_259);}.cls-33{fill:url(#Áåçûìÿííûé_ãðàäèåíò_259-2);}.cls-34{fill:url(#Áåçûìÿííûé_ãðàäèåíò_259-3);}.cls-35{fill:url(#Áåçûìÿííûé_ãðàäèåíò_259-4);}.cls-36{fill:url(#Áåçûìÿííûé_ãðàäèåíò_259-5);}.cls-37{fill:url(#Áåçûìÿííûé_ãðàäèåíò_259-6);}.cls-38{fill:url(#Áåçûìÿííûé_ãðàäèåíò_259-7);}.cls-39{fill:url(#Áåçûìÿííûé_ãðàäèåíò_259-8);}.cls-40{fill:#6f2561;}.cls-41{fill:url(#Áåçûìÿííûé_ãðàäèåíò_246);}.cls-42{fill:#ff4c61;}.cls-43,.cls-46,.cls-47,.cls-49{mix-blend-mode:soft-light;}.cls-44{fill:url(#Áåçûìÿííûé_ãðàäèåíò_136-2);}.cls-45{fill:url(#Áåçûìÿííûé_ãðàäèåíò_136-3);}.cls-49{opacity:0.36;}.cls-50{fill:url(#Áåçûìÿííûé_ãðàäèåíò_220-3);}.cls-51{fill:url(#Áåçûìÿííûé_ãðàäèåíò_220-4);}.cls-52{fill:url(#Áåçûìÿííûé_ãðàäèåíò_220-5);}.cls-53{fill:url(#Áåçûìÿííûé_ãðàäèåíò_217);}.cls-54{fill:url(#Áåçûìÿííûé_ãðàäèåíò_266);}.cls-55{fill:url(#Áåçûìÿííûé_ãðàäèåíò_217-2);}.cls-56{fill:url(#Áåçûìÿííûé_ãðàäèåíò_217-3);}</style><linearGradient id="Degradado_sin_nombre_100" x1="977.02" y1="538.85" x2="1920" y2="538.85" gradientUnits="userSpaceOnUse"><stop offset="0" stop-color="#2a8ac4"/><stop offset="0.23" stop-color="#287db9"/><stop offset="0.65" stop-color="#215a9c"/><stop offset="1" stop-color="#1b387f"/></linearGradient><linearGradient id="Degradado_sin_nombre_100-2" x1="244.44" y1="400.42" x2="605.61" y2="400.42" xlink:href="#Degradado_sin_nombre_100"/><linearGradient id="Degradado_sin_nombre_9" x1="242.71" y1="473.57" x2="602.68" y2="473.57" gradientUnits="userSpaceOnUse"><stop offset="0" stop-color="#c00f36"/><stop offset="0.3" stop-color="#bd0f35"/><stop offset="0.49" stop-color="#b50f34"/><stop offset="0.66" stop-color="#a60e31"/><stop offset="0.81" stop-color="#900e2d"/><stop offset="0.94" stop-color="#750d28"/><stop offset="1" stop-color="#680d25"/></linearGradient><linearGradient id="Degradado_sin_nombre_14" x1="945.89" y1="473.82" x2="970.64" y2="473.82" xlink:href="#Degradado_sin_nombre_100"/><linearGradient id="Degradado_sin_nombre_173" x1="1487.96" y1="1261.55" x2="1487.96" y2="840.64" gradientTransform="matrix(0.96, -0.44, 0.42, 0.91, -361.84, 623.46)" gradientUnits="userSpaceOnUse"><stop offset="0"/><stop offset="0.08" stop-color="#010309"/><stop offset="0.22" stop-color="#060c22"/><stop offset="0.4" stop-color="#0c1a4a"/><stop offset="0.61" stop-color="#152e81"/><stop offset="0.83" stop-color="#2147c7"/><stop offset="1" stop-color="#2a5bff"/></linearGradient><linearGradient id="Áåçûìÿííûé_ãðàäèåíò_269" x1="1417.02" y1="992.3" x2="1417.02" y2="805.16" gradientTransform="translate(-136.79 435.49) rotate(-24.77)" gradientUnits="userSpaceOnUse"><stop offset="0" stop-color="#a43440"/><stop offset="1" stop-color="#c73634"/></linearGradient><linearGradient id="Áåçûìÿííûé_ãðàäèåíò_269-2" x1="1163.22" y1="992.3" x2="1163.22" y2="805.16" xlink:href="#Áåçûìÿííûé_ãðàäèåíò_269"/><radialGradient id="Áåçûìÿííûé_ãðàäèåíò_229" cx="1289.78" cy="-4097.68" r="167.24" gradientTransform="matrix(1.14, -0.53, 0.96, 2.08, 3739.01, 9534.65)" gradientUnits="userSpaceOnUse"><stop offset="0" stop-color="#f4bab3"/><stop offset="0.77" stop-color="#8d6fc7"/><stop offset="0.96" stop-color="#b695e5"/></radialGradient><radialGradient id="Áåçûìÿííûé_ãðàäèåíò_187" cx="1290.74" cy="1111.56" r="56.41" gradientTransform="translate(-433.02 -206.4) rotate(-24.77) scale(1 0.91)" gradientUnits="userSpaceOnUse"><stop offset="0.02" stop-color="#ab5e75"/><stop offset="0.25" stop-color="#9f577b"/><stop offset="0.67" stop-color="#7f458c"/><stop offset="0.99" stop-color="#61349c"/></radialGradient><linearGradient id="Áåçûìÿííûé_ãðàäèåíò_136" x1="1289.22" y1="303.22" x2="1289.22" y2="279.86" gradientTransform="translate(-136.79 435.49) rotate(-24.77)" gradientUnits="userSpaceOnUse"><stop offset="0" stop-color="#ffff18"/><stop offset="1" stop-color="#ff7400"/></linearGradient><radialGradient id="Áåçûìÿííûé_ãðàäèåíò_183" cx="1289.06" cy="-3076.67" r="99.66" gradientTransform="translate(2561.08 6281.3) rotate(-24.77) scale(1 1.84)" gradientUnits="userSpaceOnUse"><stop offset="0.02" stop-color="#8881bc"/><stop offset="0.29" stop-color="#8375b7"/><stop offset="0.77" stop-color="#7555aa"/><stop offset="0.99" stop-color="#6d43a3"/></radialGradient><radialGradient id="Áåçûìÿííûé_ãðàäèåíò_183-2" cx="1289.55" cy="510" r="105.96" gradientTransform="translate(-136.79 435.49) rotate(-24.77)" xlink:href="#Áåçûìÿííûé_ãðàäèåíò_183"/><radialGradient id="Áåçûìÿííûé_ãðàäèåíò_176" cx="1275.07" cy="-3285.18" r="120.07" gradientTransform="translate(2460.69 6327.63) rotate(-24.77) scale(1.1 1.84)" gradientUnits="userSpaceOnUse"><stop offset="0.02" stop-color="#725eb0"/><stop offset="0.38" stop-color="#6d52aa"/><stop offset="0.99" stop-color="#61349c"/></radialGradient><linearGradient id="Áåçûìÿííûé_ãðàäèåíò_129" x1="1290.4" y1="575.92" x2="1290.4" y2="412.45" gradientTransform="translate(-136.79 435.49) rotate(-24.77)" gradientUnits="userSpaceOnUse"><stop offset="0" stop-color="#ffff29"/><stop offset="1" stop-color="#ff7e59"/></linearGradient><radialGradient id="Áåçûìÿííûé_ãðàäèåíò_176-2" cx="1290.79" cy="-2993.19" r="39.15" gradientTransform="translate(2561.08 6281.3) rotate(-24.77) scale(1 1.84)" xlink:href="#Áåçûìÿííûé_ãðàäèåíò_176"/><radialGradient id="Áåçûìÿííûé_ãðàäèåíò_183-3" cx="1290.43" cy="372.57" r="72.13" gradientTransform="translate(-136.79 435.49) rotate(-24.77)" xlink:href="#Áåçûìÿííûé_ãðàäèåíò_183"/><linearGradient id="Áåçûìÿííûé_ãðàäèåíò_220" x1="1284.93" y1="720.15" x2="1284.93" y2="710.28" gradientTransform="translate(-136.79 435.49) rotate(-24.77)" gradientUnits="userSpaceOnUse"><stop offset="0" stop-color="#8dc7ff"/><stop offset="0.32" stop-color="#5c4d86"/></linearGradient><radialGradient id="Áåçûìÿííûé_ãðàäèåíò_199" cx="1285.63" cy="713.29" r="3.88" gradientTransform="translate(-136.79 435.49) rotate(-24.77)" gradientUnits="userSpaceOnUse"><stop offset="0.02" stop-color="#8881bc"/><stop offset="0.29" stop-color="#8375b7"/><stop offset="0.77" stop-color="#7555aa"/><stop offset="1" stop-color="#6d43a3"/></radialGradient><linearGradient id="Áåçûìÿííûé_ãðàäèåíò_220-2" x1="1284.93" y1="695.82" x2="1284.93" y2="685.95" xlink:href="#Áåçûìÿííûé_ãðàäèåíò_220"/><radialGradient id="Áåçûìÿííûé_ãðàäèåíò_199-2" cx="1285.63" cy="688.96" r="3.88" xlink:href="#Áåçûìÿííûé_ãðàäèåíò_199"/><radialGradient id="Áåçûìÿííûé_ãðàäèåíò_259" cx="1204.42" cy="523.12" r="3.88" gradientTransform="translate(-136.79 435.49) rotate(-24.77)" gradientUnits="userSpaceOnUse"><stop offset="0" stop-color="#f4bab3"/><stop offset="1" stop-color="#8d6fc7"/></radialGradient><radialGradient id="Áåçûìÿííûé_ãðàäèåíò_259-2" cx="1213.07" cy="453.32" r="3.88" xlink:href="#Áåçûìÿííûé_ãðàäèåíò_259"/><radialGradient id="Áåçûìÿííûé_ãðàäèåíò_259-3" cx="1250.58" cy="578.25" r="3.88" xlink:href="#Áåçûìÿííûé_ãðàäèåíò_259"/><radialGradient id="Áåçûìÿííûé_ãðàäèåíò_259-4" cx="1326.96" cy="584.19" r="3.88" xlink:href="#Áåçûìÿííûé_ãðàäèåíò_259"/><radialGradient id="Áåçûìÿííûé_ãðàäèåíò_259-5" cx="1378.68" cy="538.16" r="3.88" xlink:href="#Áåçûìÿííûé_ãðàäèåíò_259"/><radialGradient id="Áåçûìÿííûé_ãðàäèåíò_259-6" cx="1370.76" cy="450.75" r="3.88" xlink:href="#Áåçûìÿííûé_ãðàäèåíò_259"/><radialGradient id="Áåçûìÿííûé_ãðàäèåíò_259-7" cx="1331.89" cy="405.68" r="3.88" xlink:href="#Áåçûìÿííûé_ãðàäèåíò_259"/><radialGradient id="Áåçûìÿííûé_ãðàäèåíò_259-8" cx="1266.45" cy="398.62" r="3.88" xlink:href="#Áåçûìÿííûé_ãðàäèåíò_259"/><linearGradient id="Áåçûìÿííûé_ãðàäèåíò_246" x1="1326.95" y1="992.3" x2="1326.95" y2="784.36" gradientTransform="translate(-136.79 435.49) rotate(-24.77)" gradientUnits="userSpaceOnUse"><stop offset="0" stop-color="#a43411"/><stop offset="1" stop-color="#c73634"/></linearGradient><linearGradient id="Áåçûìÿííûé_ãðàäèåíò_136-2" x1="1424.62" y1="479.63" x2="1436.94" y2="479.63" xlink:href="#Áåçûìÿííûé_ãðàäèåíò_136"/><linearGradient id="Áåçûìÿííûé_ãðàäèåíò_136-3" x1="1145.81" y1="476.26" x2="1157.39" y2="476.26" xlink:href="#Áåçûìÿííûé_ãðàäèåíò_136"/><linearGradient id="Áåçûìÿííûé_ãðàäèåíò_220-3" x1="1207.85" y1="789.48" x2="1207.85" y2="778.08" xlink:href="#Áåçûìÿííûé_ãðàäèåíò_220"/><linearGradient id="Áåçûìÿííûé_ãðàäèåíò_220-4" x1="1372.01" y1="777.63" x2="1372.01" y2="766.23" xlink:href="#Áåçûìÿííûé_ãðàäèåíò_220"/><linearGradient id="Áåçûìÿííûé_ãðàäèåíò_220-5" x1="1293.91" y1="776.73" x2="1293.91" y2="765.33" xlink:href="#Áåçûìÿííûé_ãðàäèåíò_220"/><radialGradient id="Áåçûìÿííûé_ãðàäèåíò_217" cx="1319.13" cy="409.79" r="22.54" gradientTransform="translate(-632.95 212.03) rotate(-6.46) scale(1.47)" gradientUnits="userSpaceOnUse"><stop offset="0" stop-color="#003cee"/><stop offset="0.06" stop-color="#0036d6"/><stop offset="0.2" stop-color="#00289e"/><stop offset="0.34" stop-color="#001c6d"/><stop offset="0.48" stop-color="#001246"/><stop offset="0.62" stop-color="#000a27"/><stop offset="0.75" stop-color="#000412"/><stop offset="0.88" stop-color="#000104"/><stop offset="1"/></radialGradient><radialGradient id="Áåçûìÿííûé_ãðàäèåíò_266" cx="1476.51" cy="255.83" r="17.99" gradientTransform="matrix(1.02, -1.06, 1.06, 1.02, -419.39, 1568.15)" gradientUnits="userSpaceOnUse"><stop offset="0" stop-color="#ff9a00"/><stop offset="0.09" stop-color="#d68100"/><stop offset="0.23" stop-color="#9e5f00"/><stop offset="0.36" stop-color="#6e4200"/><stop offset="0.5" stop-color="#462a00"/><stop offset="0.63" stop-color="#271800"/><stop offset="0.76" stop-color="#120b00"/><stop offset="0.89" stop-color="#040300"/><stop offset="1"/></radialGradient><radialGradient id="Áåçûìÿííûé_ãðàäèåíò_217-2" cx="1365.59" cy="428.44" r="8.69" gradientTransform="matrix(1.02, -1.06, 1.06, 1.02, -419.39, 1568.15)" xlink:href="#Áåçûìÿííûé_ãðàäèåíò_217"/><radialGradient id="Áåçûìÿííûé_ãðàäèåíò_217-3" cx="1258.6" cy="395.63" r="8.69" gradientTransform="matrix(1.02, -1.06, 1.06, 1.02, -419.39, 1568.15)" xlink:href="#Áåçûìÿííûé_ãðàäèåíò_217"/></defs><g class="cls-1"><g id="Capa_4" data-name="Capa 4"><polyline class="cls-2" points="1236.22 0 977.02 1080 1920 1080 1920 0 1380.92 -2.31"/><polyline class="cls-3" points="1279.02 0 1019.82 1080 1920 1080 1920 0 1423.72 -2.31"/><path class="cls-4" d="M349.66,394.08H353v20.21h-3.36Zm-44,4.37a10.14,10.14,0,0,1,1.2,5,18.23,18.23,0,0,1-.11,2H290.61a6.34,6.34,0,0,0,6.56,6.34,6.24,6.24,0,0,0,3.63-1,5.33,5.33,0,0,0,2.05-2.71h3.62a8.73,8.73,0,0,1-3.25,4.74,9.84,9.84,0,0,1-6.05,1.82,10.19,10.19,0,0,1-5.14-1.29,9.06,9.06,0,0,1-3.56-3.67,11.28,11.28,0,0,1-1.3-5.51,11.51,11.51,0,0,1,1.26-5.5A8.74,8.74,0,0,1,292,395a10.46,10.46,0,0,1,5.22-1.28,10.09,10.09,0,0,1,5.09,1.26A8.58,8.58,0,0,1,305.67,398.45Zm-2.26,4.26a6.23,6.23,0,0,0-.85-3.3,5.53,5.53,0,0,0-2.31-2.11,7.19,7.19,0,0,0-3.23-.72,6.19,6.19,0,0,0-4.33,1.63,6.61,6.61,0,0,0-2.05,4.5Zm48-16.49a2.29,2.29,0,1,0,0,4.57,2.1,2.1,0,0,0,1.56-.66,2.36,2.36,0,0,0,0-3.25A2.1,2.1,0,0,0,351.4,386.22Zm14.86,25L360,394.08h-3.61l7.93,20.21h3.91l7.93-20.21h-3.58ZM340.33,389H337v5.1h-2.62v2.76H337v11.92a5.56,5.56,0,0,0,1.4,4.24,6,6,0,0,0,4.21,1.29h3v-2.84h-2.47a3,3,0,0,1-2.17-.61,2.83,2.83,0,0,1-.63-2.08V396.84h5.27v-2.76h-5.27ZM278,397.36v-3.28h-3.36v20.21H278v-11c0-4.08,1.88-6.13,5.64-6.13h.89v-3.46a7.83,7.83,0,0,0-4,1A6.42,6.42,0,0,0,278,397.36Zm49.13-3.28h3.39v20.21h-3.39v-3.76a7.81,7.81,0,0,1-3,2.93,8.92,8.92,0,0,1-4.59,1.16,9.11,9.11,0,0,1-4.87-1.33,9.22,9.22,0,0,1-3.43-3.72,11.57,11.57,0,0,1-1.26-5.46,11.29,11.29,0,0,1,1.26-5.44,9.1,9.1,0,0,1,3.45-3.64,9.45,9.45,0,0,1,4.89-1.29,8.91,8.91,0,0,1,4.61,1.15,7.64,7.64,0,0,1,2.91,2.87Zm0,10.07a8.28,8.28,0,0,0-.92-4,6.57,6.57,0,0,0-2.49-2.6,7.09,7.09,0,0,0-6.88,0,6.41,6.41,0,0,0-2.47,2.58,8.19,8.19,0,0,0-.92,4,8.37,8.37,0,0,0,.92,4,6.58,6.58,0,0,0,2.47,2.62,6.71,6.71,0,0,0,3.43.9,6.83,6.83,0,0,0,3.45-.9,6.63,6.63,0,0,0,2.49-2.62A8.4,8.4,0,0,0,327.16,404.15Zm-74.22-11.7a9.46,9.46,0,0,1,4.84-1.25,9,9,0,0,1,4.81,1.25,8.08,8.08,0,0,1,3.08,3.58h4a11.62,11.62,0,0,0-4.57-5.75,13.16,13.16,0,0,0-7.34-2,12.74,12.74,0,0,0-6.51,1.69,12.32,12.32,0,0,0-4.63,4.71,14.29,14.29,0,0,0,0,13.52,12.19,12.19,0,0,0,4.63,4.66,12.84,12.84,0,0,0,6.51,1.68,13.31,13.31,0,0,0,7.34-2,11.54,11.54,0,0,0,4.57-5.7h-4a7.92,7.92,0,0,1-3.08,3.56,9,9,0,0,1-4.81,1.24,9.37,9.37,0,0,1-4.84-1.26,8.73,8.73,0,0,1-3.35-3.56,11.3,11.3,0,0,1-1.22-5.36,11.45,11.45,0,0,1,1.22-5.41A8.86,8.86,0,0,1,252.94,392.45Zm143.73,6a10.14,10.14,0,0,1,1.2,5,18.23,18.23,0,0,1-.11,2H381.61a6.34,6.34,0,0,0,6.56,6.34,6.29,6.29,0,0,0,3.64-1,5.36,5.36,0,0,0,2-2.71h3.62a8.73,8.73,0,0,1-3.25,4.74,9.84,9.84,0,0,1-6.05,1.82,10.19,10.19,0,0,1-5.14-1.29,9.06,9.06,0,0,1-3.56-3.67,11.38,11.38,0,0,1-1.29-5.51,11.5,11.5,0,0,1,1.25-5.5A8.8,8.8,0,0,1,383,395a10.46,10.46,0,0,1,5.22-1.28,10.09,10.09,0,0,1,5.09,1.26A8.51,8.51,0,0,1,396.67,398.45Zm-2.26,4.26a6.23,6.23,0,0,0-.85-3.3,5.53,5.53,0,0,0-2.31-2.11,7.19,7.19,0,0,0-3.23-.72,6.19,6.19,0,0,0-4.33,1.63,6.61,6.61,0,0,0-2.05,4.5ZM568.62,389h-3.35v5.1h-2.62v2.76h2.62v11.92c0,2,.46,3.38,1.4,4.24a6,6,0,0,0,4.21,1.29h3v-2.84h-2.47a3.09,3.09,0,0,1-2.18-.61,2.83,2.83,0,0,1-.63-2.08V396.84h5.28v-2.76h-5.28Zm-13.16,8.78a7.6,7.6,0,0,0-2.92-2.87,8.89,8.89,0,0,0-4.61-1.15A9.51,9.51,0,0,0,543,395a9.24,9.24,0,0,0-3.45,3.64,11.4,11.4,0,0,0-1.25,5.44,11.69,11.69,0,0,0,1.25,5.46,9.24,9.24,0,0,0,3.44,3.72,9.1,9.1,0,0,0,4.86,1.33,9,9,0,0,0,4.6-1.16,8,8,0,0,0,3-2.93v3.76h3.39V394.08h-3.39Zm-.93,10.39a6.49,6.49,0,0,1-2.49,2.62,7,7,0,0,1-6.88,0,6.65,6.65,0,0,1-2.47-2.62,8.48,8.48,0,0,1-.92-4,8.31,8.31,0,0,1,.92-4,6.47,6.47,0,0,1,2.47-2.58,7.09,7.09,0,0,1,6.88,0,6.44,6.44,0,0,1,2.49,2.6,8.17,8.17,0,0,1,.93,4A8.29,8.29,0,0,1,554.53,408.15Zm26.73-21.27a2.38,2.38,0,0,1,0,3.25,2.11,2.11,0,0,1-1.57.66,2.2,2.2,0,0,1-1.62-.66,2.31,2.31,0,0,1,0-3.25,2.2,2.2,0,0,1,1.62-.66A2.11,2.11,0,0,1,581.26,386.88Zm20.08,20.92H605a8.87,8.87,0,0,1-3.25,5,9.72,9.72,0,0,1-6.08,1.86,10,10,0,0,1-5.11-1.29,9,9,0,0,1-3.49-3.65,11.69,11.69,0,0,1-1.25-5.53,11.51,11.51,0,0,1,1.25-5.48,9.13,9.13,0,0,1,3.49-3.64,11.06,11.06,0,0,1,11.25.52,8.57,8.57,0,0,1,3.19,5h-3.62a5.19,5.19,0,0,0-2-2.92,6.2,6.2,0,0,0-3.7-1.07,5.94,5.94,0,0,0-4.65,2,8.08,8.08,0,0,0-1.77,5.59,8.22,8.22,0,0,0,1.77,5.64,5.91,5.91,0,0,0,4.65,2,6.24,6.24,0,0,0,3.68-1A5.21,5.21,0,0,0,601.34,407.8ZM578,394.08h3.35v20.21H578ZM415.54,396a11.45,11.45,0,0,0-1.22,5.41,11.3,11.3,0,0,0,1.22,5.36,8.69,8.69,0,0,0,3.36,3.56,9.33,9.33,0,0,0,4.83,1.26,9,9,0,0,0,4.82-1.24,8,8,0,0,0,3.08-3.56h4a11.56,11.56,0,0,1-4.58,5.7,13.31,13.31,0,0,1-7.34,2,12.89,12.89,0,0,1-6.51-1.68,12.26,12.26,0,0,1-4.63-4.66,14.29,14.29,0,0,1,0-13.52,12.39,12.39,0,0,1,4.63-4.71,12.8,12.8,0,0,1,6.51-1.69,13.16,13.16,0,0,1,7.34,2,11.64,11.64,0,0,1,4.58,5.75h-4a8.14,8.14,0,0,0-3.08-3.58,9,9,0,0,0-4.82-1.25,9.42,9.42,0,0,0-4.83,1.25A8.81,8.81,0,0,0,415.54,396Zm42.15,1.61a9.94,9.94,0,0,1,1.05,4.76v11.91h-3.32V402.85a6.51,6.51,0,0,0-1.51-4.62,5.42,5.42,0,0,0-4.14-1.61,5.52,5.52,0,0,0-4.22,1.66,6.77,6.77,0,0,0-1.57,4.83v11.18h-3.35V387H444v10a6.7,6.7,0,0,1,2.75-2.4,9,9,0,0,1,3.93-.84,8.71,8.71,0,0,1,4.13,1A7,7,0,0,1,457.69,397.62Zm12.43-2.95a7.79,7.79,0,0,1,4-1v3.46h-.89c-3.76,0-5.64,2.05-5.64,6.13v11h-3.36V394.08h3.36v3.28A6.38,6.38,0,0,1,470.12,394.67ZM533,397.62a9.82,9.82,0,0,1,1.07,4.76v11.91h-3.32V402.85a6.5,6.5,0,0,0-1.5-4.62,5.24,5.24,0,0,0-4-1.61,5.39,5.39,0,0,0-4.17,1.68,6.86,6.86,0,0,0-1.55,4.85v11.14h-3.32V402.85a6.5,6.5,0,0,0-1.5-4.62,5.24,5.24,0,0,0-4-1.61,5.38,5.38,0,0,0-4.16,1.68,6.86,6.86,0,0,0-1.55,4.85v11.14H501.6V394.08H505V397a6.62,6.62,0,0,1,2.67-2.44,8.19,8.19,0,0,1,3.71-.84,8.75,8.75,0,0,1,4.5,1.14,7,7,0,0,1,2.91,3.36,6.59,6.59,0,0,1,2.81-3.32,8.21,8.21,0,0,1,4.35-1.18,8.85,8.85,0,0,1,4.2,1A7.07,7.07,0,0,1,533,397.62ZM492.16,395a11.22,11.22,0,0,0-10.41,0,9.27,9.27,0,0,0-3.67,3.65,11,11,0,0,0-1.34,5.48,11.17,11.17,0,0,0,1.31,5.51,9.18,9.18,0,0,0,3.61,3.67,10.36,10.36,0,0,0,5.15,1.29,10.76,10.76,0,0,0,5.24-1.29,9.56,9.56,0,0,0,3.74-3.67,10.79,10.79,0,0,0,1.38-5.51,11,11,0,0,0-1.34-5.5A9.28,9.28,0,0,0,492.16,395Zm.61,13.26a6.46,6.46,0,0,1-2.57,2.54,7,7,0,0,1-3.39.85,6.81,6.81,0,0,1-3.32-.83,5.93,5.93,0,0,1-2.42-2.53,8.79,8.79,0,0,1-.9-4.16,8.64,8.64,0,0,1,.92-4.14,6.08,6.08,0,0,1,2.45-2.52,7.26,7.26,0,0,1,6.74,0,6.25,6.25,0,0,1,2.5,2.52,8.31,8.31,0,0,1,1,4.14A8.17,8.17,0,0,1,492.77,408.28Z"/><path class="cls-5" d="M346.92,391.33h3.36v20.22h-3.36Zm-44,4.38a10.14,10.14,0,0,1,1.2,5c0,.64,0,1.31-.11,2H287.86a6.36,6.36,0,0,0,6.57,6.34,6.24,6.24,0,0,0,3.63-1,5.36,5.36,0,0,0,2.05-2.72h3.62a8.71,8.71,0,0,1-3.25,4.74,9.78,9.78,0,0,1-6.05,1.83,10.26,10.26,0,0,1-5.15-1.29,9.19,9.19,0,0,1-3.56-3.67,12.52,12.52,0,0,1,0-11,8.76,8.76,0,0,1,3.52-3.64,10.56,10.56,0,0,1,5.22-1.27,10.09,10.09,0,0,1,5.09,1.26A8.58,8.58,0,0,1,302.93,395.71ZM300.66,400a6.29,6.29,0,0,0-.84-3.31,5.57,5.57,0,0,0-2.31-2.1,7.19,7.19,0,0,0-3.23-.72,6.19,6.19,0,0,0-4.33,1.63,6.61,6.61,0,0,0-2.05,4.5Zm48-16.49a2.25,2.25,0,0,0-2.28,2.28,2.24,2.24,0,0,0,.66,1.63,2.2,2.2,0,0,0,1.62.66,2.11,2.11,0,0,0,1.57-.66,2.27,2.27,0,0,0,.65-1.63,2.23,2.23,0,0,0-.65-1.62A2.11,2.11,0,0,0,348.65,383.48Zm14.87,25-6.31-17.12H353.6l7.93,20.22h3.91l7.93-20.22h-3.58Zm-25.93-22.21h-3.36v5.09h-2.62v2.77h2.62V406a5.56,5.56,0,0,0,1.4,4.24,6,6,0,0,0,4.21,1.29h3v-2.84h-2.47a3,3,0,0,1-2.17-.61,2.83,2.83,0,0,1-.63-2.08V394.1h5.27v-2.77h-5.27Zm-62.3,8.38v-3.29h-3.36v20.22h3.36v-11q0-6.13,5.64-6.13h.89V391a7.93,7.93,0,0,0-4,.95A6.45,6.45,0,0,0,275.29,394.62Zm49.13-3.29h3.39v20.22h-3.39v-3.76a7.89,7.89,0,0,1-3,2.93,8.94,8.94,0,0,1-4.59,1.16,9.11,9.11,0,0,1-4.87-1.33,9.22,9.22,0,0,1-3.43-3.72,11.57,11.57,0,0,1-1.26-5.46,11.29,11.29,0,0,1,1.26-5.44,9,9,0,0,1,3.45-3.64,9.44,9.44,0,0,1,4.88-1.29,8.92,8.92,0,0,1,4.62,1.15,7.64,7.64,0,0,1,2.91,2.87Zm0,10.07a8.27,8.27,0,0,0-.92-4,6.57,6.57,0,0,0-2.49-2.6,7.09,7.09,0,0,0-6.88,0,6.41,6.41,0,0,0-2.47,2.58,8.2,8.2,0,0,0-.93,4,8.37,8.37,0,0,0,.93,4,6.58,6.58,0,0,0,2.47,2.62,6.68,6.68,0,0,0,3.43.9A6.83,6.83,0,0,0,321,408a6.63,6.63,0,0,0,2.49-2.62A8.42,8.42,0,0,0,324.42,401.4ZM250.2,389.71a9.45,9.45,0,0,1,4.83-1.25,9,9,0,0,1,4.82,1.25,8.08,8.08,0,0,1,3.08,3.58h4a11.69,11.69,0,0,0-4.57-5.76,13.24,13.24,0,0,0-7.35-2,12.8,12.8,0,0,0-6.51,1.69,12.4,12.4,0,0,0-4.63,4.71,14.36,14.36,0,0,0,0,13.52,12.33,12.33,0,0,0,4.63,4.66,12.89,12.89,0,0,0,6.51,1.68,13.32,13.32,0,0,0,7.35-2,11.54,11.54,0,0,0,4.57-5.7h-4a7.92,7.92,0,0,1-3.08,3.56,9.07,9.07,0,0,1-4.82,1.24,9.36,9.36,0,0,1-4.83-1.26,8.73,8.73,0,0,1-3.35-3.56,11.19,11.19,0,0,1-1.22-5.36,11.34,11.34,0,0,1,1.22-5.41A8.79,8.79,0,0,1,250.2,389.71Zm143.73,6a10.14,10.14,0,0,1,1.2,5,18.23,18.23,0,0,1-.11,2H378.87a6.34,6.34,0,0,0,6.56,6.34,6.24,6.24,0,0,0,3.63-1,5.31,5.31,0,0,0,2.05-2.72h3.62a8.66,8.66,0,0,1-3.25,4.74,9.78,9.78,0,0,1-6.05,1.83,10.19,10.19,0,0,1-5.14-1.29,9.06,9.06,0,0,1-3.56-3.67,11.29,11.29,0,0,1-1.3-5.52,11.47,11.47,0,0,1,1.26-5.49,8.76,8.76,0,0,1,3.52-3.64,10.56,10.56,0,0,1,5.22-1.27,10.09,10.09,0,0,1,5.09,1.26A8.58,8.58,0,0,1,393.93,395.71ZM391.67,400a6.29,6.29,0,0,0-.85-3.31,5.57,5.57,0,0,0-2.31-2.1,7.19,7.19,0,0,0-3.23-.72,6.19,6.19,0,0,0-4.33,1.63,6.61,6.61,0,0,0-2.05,4.5Zm174.21-13.73h-3.35v5.09h-2.62v2.77h2.62V406c0,2,.46,3.38,1.4,4.24a6,6,0,0,0,4.2,1.29h3v-2.84h-2.47a3.07,3.07,0,0,1-2.18-.61,2.83,2.83,0,0,1-.63-2.08V394.1h5.28v-2.77h-5.28ZM552.72,395a7.67,7.67,0,0,0-2.92-2.87,8.89,8.89,0,0,0-4.61-1.15,9.51,9.51,0,0,0-4.89,1.29,9.17,9.17,0,0,0-3.45,3.64,11.4,11.4,0,0,0-1.25,5.44,11.69,11.69,0,0,0,1.25,5.46,9.29,9.29,0,0,0,3.43,3.72,9.16,9.16,0,0,0,4.87,1.33,9,9,0,0,0,4.6-1.16,8,8,0,0,0,3-2.93v3.76h3.39V391.33h-3.39Zm-.93,10.39A6.49,6.49,0,0,1,549.3,408a7,7,0,0,1-6.88,0,6.65,6.65,0,0,1-2.47-2.62,8.48,8.48,0,0,1-.92-4,8.31,8.31,0,0,1,.92-4,6.47,6.47,0,0,1,2.47-2.58,7.09,7.09,0,0,1,6.88,0,6.44,6.44,0,0,1,2.49,2.6,8.16,8.16,0,0,1,.93,4A8.3,8.3,0,0,1,551.79,405.41Zm26.73-21.27a2.22,2.22,0,0,1,.64,1.62,2.26,2.26,0,0,1-.64,1.63,2.12,2.12,0,0,1-1.57.66,2.27,2.27,0,0,1-2.29-2.29,2.17,2.17,0,0,1,.67-1.62,2.2,2.2,0,0,1,1.62-.66A2.12,2.12,0,0,1,578.52,384.14Zm20.08,20.92h3.62a8.92,8.92,0,0,1-3.25,5,9.72,9.72,0,0,1-6.08,1.86,10,10,0,0,1-5.11-1.29,9,9,0,0,1-3.49-3.65A11.61,11.61,0,0,1,583,401.4a11.36,11.36,0,0,1,1.25-5.47,9.07,9.07,0,0,1,3.49-3.64,11.06,11.06,0,0,1,11.25.52,8.54,8.54,0,0,1,3.19,5H598.6a5.19,5.19,0,0,0-2-2.92,6.2,6.2,0,0,0-3.7-1.07,5.94,5.94,0,0,0-4.65,2,8.05,8.05,0,0,0-1.77,5.58,8.23,8.23,0,0,0,1.77,5.65,5.91,5.91,0,0,0,4.65,2,6.24,6.24,0,0,0,3.68-1A5.21,5.21,0,0,0,598.6,405.06Zm-23.38-13.73h3.35v20.22h-3.35ZM412.8,393.27a11.45,11.45,0,0,0-1.22,5.41A11.3,11.3,0,0,0,412.8,404a8.69,8.69,0,0,0,3.36,3.56,9.33,9.33,0,0,0,4.83,1.26,9,9,0,0,0,4.81-1.24,7.92,7.92,0,0,0,3.08-3.56h4a11.56,11.56,0,0,1-4.58,5.7,13.31,13.31,0,0,1-7.34,2,12.84,12.84,0,0,1-6.51-1.68,12.19,12.19,0,0,1-4.63-4.66,14.29,14.29,0,0,1,0-13.52,12.26,12.26,0,0,1,4.63-4.71,12.74,12.74,0,0,1,6.51-1.69,13.23,13.23,0,0,1,7.34,2,11.71,11.71,0,0,1,4.58,5.76h-4a8.08,8.08,0,0,0-3.08-3.58,9,9,0,0,0-4.81-1.25,9.42,9.42,0,0,0-4.83,1.25A8.75,8.75,0,0,0,412.8,393.27ZM455,394.88a9.92,9.92,0,0,1,1.05,4.75v11.92h-3.32V400.11a6.51,6.51,0,0,0-1.52-4.63,5.38,5.38,0,0,0-4.13-1.6,5.51,5.51,0,0,0-4.22,1.66,6.77,6.77,0,0,0-1.57,4.83v11.18h-3.36v-27.3h3.36v10a6.7,6.7,0,0,1,2.75-2.4,9,9,0,0,1,3.93-.84,8.71,8.71,0,0,1,4.13,1A7,7,0,0,1,455,394.88Zm12.43-3a7.87,7.87,0,0,1,4-.95v3.46h-.89q-5.64,0-5.64,6.13v11h-3.36V391.33h3.36v3.29A6.41,6.41,0,0,1,467.38,391.92Zm62.91,3a9.81,9.81,0,0,1,1.07,4.75v11.92H528V400.11a6.55,6.55,0,0,0-1.5-4.63,5.24,5.24,0,0,0-4-1.6,5.38,5.38,0,0,0-4.16,1.68,6.86,6.86,0,0,0-1.55,4.85v11.14h-3.32V400.11a6.55,6.55,0,0,0-1.5-4.63,5.24,5.24,0,0,0-4-1.6,5.38,5.38,0,0,0-4.16,1.68,6.86,6.86,0,0,0-1.55,4.85v11.14h-3.36V391.33h3.36v2.92a6.62,6.62,0,0,1,2.67-2.44,8.19,8.19,0,0,1,3.71-.84,8.8,8.8,0,0,1,4.5,1.14,7,7,0,0,1,2.91,3.36,6.59,6.59,0,0,1,2.81-3.32,8.21,8.21,0,0,1,4.35-1.18,8.85,8.85,0,0,1,4.2,1A7.07,7.07,0,0,1,530.29,394.88Zm-40.87-2.61a11.3,11.3,0,0,0-10.41,0,9.29,9.29,0,0,0-3.67,3.66A11,11,0,0,0,474,401.4a11.18,11.18,0,0,0,1.31,5.52,9.11,9.11,0,0,0,3.61,3.67,10.36,10.36,0,0,0,5.15,1.29,10.76,10.76,0,0,0,5.24-1.29,9.56,9.56,0,0,0,3.74-3.67,10.8,10.8,0,0,0,1.38-5.52,10.94,10.94,0,0,0-1.34-5.49A9.31,9.31,0,0,0,489.42,392.27Zm.6,13.27a6.38,6.38,0,0,1-2.56,2.54,7,7,0,0,1-3.39.85,6.81,6.81,0,0,1-3.32-.83,6,6,0,0,1-2.42-2.53,8.81,8.81,0,0,1-.9-4.17,8.6,8.6,0,0,1,.92-4.13,6,6,0,0,1,2.45-2.52,7.24,7.24,0,0,1,6.73,0,6.21,6.21,0,0,1,2.51,2.52,8.27,8.27,0,0,1,1,4.13A8.08,8.08,0,0,1,490,405.54Z"/><text class="cls-6" transform="translate(240.61 567.48)">Especialistas en Branding y web developer.<tspan x="0" y="38.27">Llevamos tus ideas al espacio.</tspan></text><path class="cls-7" d="M280.71,491.12H258.28l-3.71,10.73H242.71L263,445.46h13.15l20.25,56.39H284.42Zm-3.07-9-8.15-23.55-8.14,23.55Zm65.51-19.6a13.23,13.23,0,0,0-5.33-5.41,16.24,16.24,0,0,0-7.9-1.85,17.27,17.27,0,0,0-8.88,2.26,15.66,15.66,0,0,0-6.05,6.45,22.77,22.77,0,0,0,0,19.53,15.8,15.8,0,0,0,6.17,6.45,18.21,18.21,0,0,0,9.2,2.26A15.94,15.94,0,0,0,341,488.74a16.44,16.44,0,0,0,5.41-9.56H327v-8.63h30.5v9.84a26.54,26.54,0,0,1-4.84,10.89,27.36,27.36,0,0,1-9.56,8,28.19,28.19,0,0,1-13.11,3,29.64,29.64,0,0,1-14.72-3.67A26.65,26.65,0,0,1,305,488.46a31.34,31.34,0,0,1,0-29.73,26.64,26.64,0,0,1,10.33-10.25,31.44,31.44,0,0,1,31.18,1,23.71,23.71,0,0,1,9.68,13Zm34-7.83v14.12h19v9h-19v14.92h21.38v9.2H365.9V445.46h32.67v9.19ZM457,501.85H445.69l-25.58-38.64v38.64H408.82V445.46h11.29l25.58,38.72V445.46H457Zm12.14-43.12a26.84,26.84,0,0,1,10.25-10.25,29.11,29.11,0,0,1,14.56-3.67,28.72,28.72,0,0,1,16.54,4.84A25.32,25.32,0,0,1,520.39,463h-13A13.54,13.54,0,0,0,502,457a16,16,0,0,0-8.1-2,16.65,16.65,0,0,0-8.76,2.3,15.7,15.7,0,0,0-6,6.49,23.7,23.7,0,0,0,0,19.64,15.66,15.66,0,0,0,6,6.54,16.75,16.75,0,0,0,8.76,2.3,15.74,15.74,0,0,0,8.1-2.06,13.69,13.69,0,0,0,5.45-6.09h13a25.16,25.16,0,0,1-9.88,13.43,30.89,30.89,0,0,1-31.14,1.13,26.85,26.85,0,0,1-10.25-10.2,31.34,31.34,0,0,1,0-29.73Zm72.24-13.19v56.31H530.07V445.54ZM587,491.12H564.6l-3.71,10.73H549l20.25-56.39h13.15l20.25,56.39H590.74Zm-3.07-9-8.15-23.55-8.15,23.55Z"/><path class="cls-3" d="M664.75,449a24.76,24.76,0,0,1,10.41,9.88,29.42,29.42,0,0,1,3.67,14.88,29,29,0,0,1-3.67,14.81,25,25,0,0,1-10.41,9.8,33.65,33.65,0,0,1-15.61,3.47H629.46V445.54h19.68A33.65,33.65,0,0,1,664.75,449Zm-2.3,38.4q4.84-4.85,4.85-13.64T662.45,460q-4.83-5-13.71-5h-8v37.19h8Q657.62,492.25,662.45,487.41Z"/><path class="cls-3" d="M698.6,445.54v56.31H687.3V445.54Z"/><path class="cls-3" d="M748.94,462.48a13.23,13.23,0,0,0-5.33-5.41,16.26,16.26,0,0,0-7.9-1.85,17.25,17.25,0,0,0-8.88,2.26,15.59,15.59,0,0,0-6.05,6.45,22.77,22.77,0,0,0,0,19.53,15.8,15.8,0,0,0,6.17,6.45,18.19,18.19,0,0,0,9.2,2.26,15.94,15.94,0,0,0,10.57-3.43,16.38,16.38,0,0,0,5.4-9.56H732.8v-8.63h30.5v9.84a26.54,26.54,0,0,1-4.84,10.89,27.36,27.36,0,0,1-9.56,8,28.19,28.19,0,0,1-13.11,3,29.67,29.67,0,0,1-14.73-3.67,26.69,26.69,0,0,1-10.32-10.2,31.34,31.34,0,0,1,0-29.73,26.68,26.68,0,0,1,10.32-10.25,31.46,31.46,0,0,1,31.19,1,23.76,23.76,0,0,1,9.68,13Z"/><path class="cls-3" d="M783,445.54v56.31H771.69V445.54Z"/><path class="cls-3" d="M832.44,445.54v9.11h-15v47.2H806.14v-47.2h-15v-9.11Z"/><path class="cls-3" d="M875.19,491.12H852.76l-3.71,10.73H837.19l20.25-56.39h13.15l20.25,56.39H878.9Zm-3.06-9L864,458.53l-8.15,23.55Z"/><path class="cls-3" d="M909.72,492.89h18.56v9H898.43V445.54h11.29Z"/><path class="cls-8" d="M970.64,439.53l-16.42,68.59h-8.33l16.42-68.59Z"/><polygon class="cls-9" points="1507.9 1080 1364.47 752.6 1478.73 701.38 1658.76 1080.35 1507.9 1080"/><path class="cls-10" d="M1474.76,588.18l39.46-27.86s44,77.07,33.55,190.62l-4.09,1.89-52.19-121.69-8.77,3.68Z"/><path class="cls-11" d="M1277.87,679.32l-48.1,12.27S1259.9,775,1353.06,840.8l4.08-1.89-58.73-118.66,8.49-4.29Z"/><path class="cls-12" d="M1161,167.6c-55.85,25.78-81.17,200.81-16.29,322.79S1352.08,769.8,1352.08,769.8L1424,737.49l71.22-33.73s-27.31-210.6-78-339.11S1216.42,142,1161,167.6Z"/><path class="cls-13" d="M1352.08,769.8s78.1-44.83,143.09-66C1495.17,703.76,1418.91,748.55,1352.08,769.8Z"/><path class="cls-14" d="M1112.08,258.93s67.56-61.6,157.42-64.72c0,0-67.85-44.94-108.55-26.61C1124.34,184.1,1112.08,258.93,1112.08,258.93Z"/><path class="cls-15" d="M1269.53,195c-84,2.1-156.23,63.91-157,64.54l-1-1.14c.73-.63,73.41-62.79,157.9-64.9Z"/><path class="cls-16" d="M1144.2,180.7,1187,163.51S1158.8,158.15,1144.2,180.7Z"/><path class="cls-17" d="M1149.08,176a97.64,97.64,0,0,1,23.26-11.47s-13.79-17.78-21.27-15.16S1149.08,176,1149.08,176Z"/><path class="cls-18" d="M1262.86,663.46s102.44-95.3,206.64-109.64c12.25,57.8,25.67,149.94,25.67,149.94s-58.22,17.56-143.09,66C1352.08,769.8,1302,719.65,1262.86,663.46Z"/><path class="cls-19" d="M1198.07,260.3c-48.59,27.19-56.75,103.84-34.86,157.32s84.56,63.4,135,38.38,76.51-79.7,44.18-134.4C1313.14,272.15,1252,230.13,1198.07,260.3Z"/><path class="cls-13" d="M1194.22,252c-48.59,27.19-56.75,103.84-34.86,157.32s84.56,63.4,135,38.38,76.51-79.71,44.18-134.4C1309.29,263.81,1248.15,221.79,1194.22,252Z"/><path class="cls-20" d="M1191.54,246.14c-48.6,27.19-56.76,103.84-34.87,157.32s84.57,63.4,135,38.38,76.5-79.7,44.17-134.4C1306.6,258,1245.46,216,1191.54,246.14Z"/><path class="cls-21" d="M1203.47,263.23c-43.88,23.61-44.75,81.26-27.67,123S1242,435.62,1281.66,416s60.2-62.44,34.94-105.12C1293.75,272.26,1249.31,238.56,1203.47,263.23Z"/><path class="cls-22" d="M1317.14,381.78v0l0,.08c-7.57,13.91-20.17,25.62-36,33.47-37.72,18.69-89.08,10.61-105.34-29.13a118.1,118.1,0,0,1-8.83-42.73c-.47-28.89,10.86-57.31,39.72-73.54,42.66-24,85.94,8.6,107.7,45.34C1328.35,338.9,1327.6,362.5,1317.14,381.78Z"/><rect class="cls-15" x="1326.79" y="440.46" width="1.5" height="160.3" transform="translate(-95.98 604.2) rotate(-24.77)"/><path class="cls-15" d="M1263.35,664l-1-1.14c119.7-103.78,206.23-109.77,207.09-109.82l.09,1.5C1468.69,554.62,1382.61,560.63,1263.35,664Z"/><path class="cls-15" d="M1230.14,620.44l-1.27-.79c.29-.47,30.22-47.95,104.17-87l.7,1.33C1260.18,572.82,1230.44,620,1230.14,620.44Z"/><polygon class="cls-13" points="1426.11 690.41 1395.1 628.53 1410.27 616.25 1439.58 684.2 1426.11 690.41"/><path class="cls-23" d="M1364.5,765.62s59.38-34.67,122.78-57.36l9.31,29.85-117.37,50.41Z"/><path class="cls-24" d="M1371.94,777.19a118.47,118.47,0,0,1,43.93-33.37c28.17-12.28,78.57-12.62,78.57-12.62l-7.16-22.94s-69.36,24.17-122.78,57.36Z"/><path class="cls-25" d="M1242.35,274.38s15.08,4.74,32.91,18.66l7.11-10.11s-15.74-14.5-32.56-14.43Z"/><polygon class="cls-25" points="1195.74 392.46 1210.27 402.89 1204.44 411.32 1193.23 402.19 1195.74 392.46"/><path class="cls-26" d="M1107.63,291.82s60.35-77.38,182.14-84.23l-20.27-13.38s-72.38-.44-157.42,64.72Z"/><circle class="cls-27" cx="1329.59" cy="546.46" r="4.93"/><path class="cls-28" d="M1333.11,544.83a3.88,3.88,0,1,1-5.15-1.9A3.88,3.88,0,0,1,1333.11,544.83Z"/><circle class="cls-29" cx="1319.39" cy="524.37" r="4.93"/><path class="cls-30" d="M1322.92,522.74a3.88,3.88,0,1,1-5.15-1.9A3.88,3.88,0,0,1,1322.92,522.74Z"/><path class="cls-13" d="M1180.64,405.75a4.93,4.93,0,1,1-6.54-2.41A4.92,4.92,0,0,1,1180.64,405.75Z"/><path class="cls-31" d="M1179.69,406.19a3.88,3.88,0,1,1-5.15-1.9A3.87,3.87,0,0,1,1179.69,406.19Z"/><circle class="cls-32" cx="1154.77" cy="340.81" r="4.93" transform="translate(-36.54 515.25) rotate(-24.77)"/><path class="cls-33" d="M1158.29,339.18a3.88,3.88,0,1,1-5.15-1.9A3.89,3.89,0,0,1,1158.29,339.18Z"/><path class="cls-13" d="M1245.66,436.46a4.94,4.94,0,1,1-6.55-2.41A4.94,4.94,0,0,1,1245.66,436.46Z"/><path class="cls-34" d="M1244.71,436.9a3.89,3.89,0,1,1-5.16-1.89A3.9,3.9,0,0,1,1244.71,436.9Z"/><path class="cls-13" d="M1317.5,409.84a4.94,4.94,0,1,1-6.55-2.41A4.94,4.94,0,0,1,1317.5,409.84Z"/><path class="cls-35" d="M1316.55,410.28a3.89,3.89,0,1,1-5.16-1.89A3.89,3.89,0,0,1,1316.55,410.28Z"/><path class="cls-13" d="M1345.17,346.38a4.93,4.93,0,1,1-6.55-2.41A4.94,4.94,0,0,1,1345.17,346.38Z"/><path class="cls-36" d="M1344.21,346.82a3.88,3.88,0,1,1-5.15-1.9A3.88,3.88,0,0,1,1344.21,346.82Z"/><path class="cls-13" d="M1301.35,270.34a4.93,4.93,0,1,1-6.54-2.41A4.93,4.93,0,0,1,1301.35,270.34Z"/><path class="cls-37" d="M1300.4,270.78a3.88,3.88,0,1,1-5.15-1.9A3.88,3.88,0,0,1,1300.4,270.78Z"/><circle class="cls-32" cx="1242.7" cy="247.77" r="4.93" transform="translate(10.54 543.53) rotate(-24.77)"/><path class="cls-38" d="M1246.23,246.14a3.89,3.89,0,1,1-5.16-1.9A3.9,3.9,0,0,1,1246.23,246.14Z"/><circle class="cls-32" cx="1180.32" cy="268.78" r="4.93"/><path class="cls-39" d="M1183.84,267.15a3.88,3.88,0,1,1-5.15-1.9A3.89,3.89,0,0,1,1183.84,267.15Z"/><polygon class="cls-40" points="1357.14 838.91 1360.44 837.39 1301.63 718.62 1298.41 720.25 1357.14 838.91"/><polygon class="cls-40" points="1491.49 631.14 1488.17 632.53 1541.46 753.85 1543.68 752.83 1491.49 631.14"/><polygon class="cls-41" points="1394.93 592.46 1406.72 587.02 1482.06 781.26 1473.85 785.05 1394.93 592.46"/><polygon class="cls-42" points="1394.93 592.46 1406.01 638.04 1473.85 785.05 1394.93 592.46"/><polygon class="cls-24" points="1409.04 593 1495.17 703.76 1465.95 715.36 1479.41 745.49 1469.89 749.89 1409.04 593"/><path class="cls-25" d="M1115.29,332s-7.15-12.45-2.63-24.25l6.87-2.77a242.75,242.75,0,0,1-.9,25.48Z"/><polygon class="cls-43" points="1454.8 521.95 1441.21 460.11 1444.65 458.52 1458.85 520.07 1454.8 521.95"/><path class="cls-44" d="M1353.13,264.1s18.84-13.93,14.93,17.52Z"/><path class="cls-45" d="M1109.2,373.28s-16.67,14.63,3.33,21.88Z"/><path class="cls-46" d="M1371.34,758.42s-130.56-141.51-208.9-256l-4.06,5s113.2,178.83,196.45,260.75Z"/><polygon class="cls-47" points="1437.22 446.49 1427.44 409.01 1430.72 407.5 1440.49 444.98 1437.22 446.49"/><path class="cls-47" d="M1246.16,602.82s28.3-32.38,60.76-51.33C1306.92,551.49,1276.57,574.68,1246.16,602.82Z"/><path class="cls-47" d="M1301.87,460.63l59.74,127.19S1342.46,540.52,1301.87,460.63Z"/><path class="cls-47" d="M1286.22,646.28s73.42-64.16,162.23-85.74C1448.45,560.54,1381.24,573.59,1286.22,646.28Z"/><path class="cls-48" d="M1150.58,302.5s13.72-.67,10.52-25.42C1161.1,277.08,1153.39,290.49,1150.58,302.5Z"/><path class="cls-47" d="M1301.45,436.41s27.12-14.28,46.11-59.6C1347.56,376.81,1340.5,413.4,1301.45,436.41Z"/><path class="cls-47" d="M1279.7,416.92s30.28,1.84,35.85-29.72C1315.55,387.2,1308,404.66,1279.7,416.92Z"/><g class="cls-49"><path class="cls-48" d="M1300.19,473.74c-1,1.64-3.12,4.29-1.65,6.26a32.17,32.17,0,0,0,2.46,2.35,13.48,13.48,0,0,1,1.76,2.42,8.8,8.8,0,0,0,3.52,3.32c1,.41,1.35-.67,1.49-1.55a5.44,5.44,0,0,0-.07-2.89,17.61,17.61,0,0,1-1.19-3.64c-.09-.49.06-1,0-1.55a8.29,8.29,0,0,0-.8-1.93C1305,475.21,1302.83,473.13,1300.19,473.74Z"/><path class="cls-48" d="M1302.76,494.7a1.48,1.48,0,0,1-.36-1.64c2.16-.95,4.88,2.95,3.24,4.71-1.88,2-3.64-1-3.57-2.76Z"/><path class="cls-48" d="M1275.7,540.19c.87-1.06,1.46-2.23,2.84-2.52a5.35,5.35,0,0,1,3.36.46,10,10,0,0,1,3.23,2.77,3.63,3.63,0,0,1,1.16,1.69c.49,2.84-1.57,6-3.53,7.74a18.88,18.88,0,0,1-3.48,2.84c-.91.52-1.81,1.1-2.67,1.7a5.86,5.86,0,0,1-2.22,1.32,6.62,6.62,0,0,1-2.3-.18,6.29,6.29,0,0,1-4.6-3.64c-1.4-3.36,1.32-7.8,3.39-10.38C1272.57,539.87,1275.44,536.9,1275.7,540.19Z"/><path class="cls-48" d="M1284,530.94c.12,1.09,0,1.51,1,1.67a2.49,2.49,0,0,0,2-.72c1-.92,1.61-3.33.21-4.11-.71-.4-2.23-1-3-.73-1.47.51-2.32,3.34-1.57,4.53Z"/><path class="cls-48" d="M1341.89,543.28a4.9,4.9,0,0,0,.52,1.58c.6,1.28,1.18,2.56,1.78,3.84,1.13,2.41,1.88,5,3,7.4a37.75,37.75,0,0,0,3,5c.55.82,1.16,1.68,1.76,2.45.18-.16,0-.61,0-.85,0-.81-.17-1.64-.11-2.44.12-1.8.21-3.67.2-5.48a4.29,4.29,0,0,1,0-1c.09-.42.3-.89.42-1.3a7.11,7.11,0,0,0,.35-2.29,12.88,12.88,0,0,0-1.72-5.22c-.28-.54-.67-1-.94-1.55a16.67,16.67,0,0,0-.93-1.71,11.06,11.06,0,0,0-3.06-2.88c-1.33-.94-3.21-2.78-5-2.38-.89.19-.77,1.21-.6,1.93.23.89.62,1.73.88,2.61C1341.69,542.11,1341.92,543.6,1341.89,543.28Z"/><path class="cls-48" d="M1338.37,531.12c.08-.78.05-2.13,1.06-2.35s1.61,1.05,1.83,1.81c.53,1.78-2.42,1-2.79-.14Z"/><path class="cls-48" d="M1359.58,534.07a3.42,3.42,0,0,0,.47,2.18,2,2,0,0,0,2.68.56c1.56-.65,2.43-1.52,2-3.24a4.45,4.45,0,0,0-2.6-2.57,2.27,2.27,0,0,0-1.5.06c-1,.37-1.08,1.31-1.21,2.24Z"/><path class="cls-48" d="M1416.2,566.23a36.61,36.61,0,0,1,6-5.91c2-1.46,4.32-2.28,6.45-3.51,3-1.74,5.39-4.12,8.1-6.27a18.06,18.06,0,0,1,7.81-4,8.84,8.84,0,0,1,7,1.37,13.41,13.41,0,0,1,2.89,3.34c.37.59.68,1.15,1.05,1.74a6.6,6.6,0,0,1,.69,1c.24.61,0,.72-.54,1a5.37,5.37,0,0,1-3.1.6,16,16,0,0,0-5.53.67c-1.74.46-3.47.79-5.19,1.34s-3.37,1.1-5.06,1.62c-1.46.44-2.94.84-4.4,1.28s-2.82,1.07-4.23,1.59c-1.18.44-2.26,1.09-3.44,1.5a21.31,21.31,0,0,0-2.18.84,9.77,9.77,0,0,1-1.71.63c-.58.16-1.06.5-1.62.71A13.12,13.12,0,0,1,1416.2,566.23Z"/><path class="cls-48" d="M1426.23,549.48c-.21.46-.55.93-.44,1.41a2.1,2.1,0,0,0,.37.69c.7.92,2.42.19,3.25-.19A10.56,10.56,0,0,0,1435,546c.58-1.56.7-3.87-.33-5.27-1.43-1.94-4.3-2.08-6.48-1.61s-4.69,1.53-5.45,3.66a3.55,3.55,0,0,0-.14,2.38,15.39,15.39,0,0,0,1,1.6c.36.76.27,1.6,1,2.18A2.85,2.85,0,0,0,1426.23,549.48Z"/><path class="cls-48" d="M1440.09,543.3a1.54,1.54,0,0,1,.77-2.42,1.7,1.7,0,0,1,2,1.57,2.09,2.09,0,0,1-1.1,1.55,1.57,1.57,0,0,1-1.92-.37Z"/><path class="cls-48" d="M1434.78,485.16a3.32,3.32,0,0,0-1.12,2.23,1.26,1.26,0,0,0,.39,1.28,6.59,6.59,0,0,0,4.42,1.29,4,4,0,0,0,2.67-1.48,9.49,9.49,0,0,0,.95-2.66,23.76,23.76,0,0,0,.55-2.36c.26-1.38.3-2.81-1-3.66a4.48,4.48,0,0,0-4.23-.26,6.3,6.3,0,0,0-2.12,2C1434.65,482.42,1434,483.05,1434.78,485.16Z"/><path class="cls-48" d="M1432.52,492.47a6,6,0,0,1,2.22-.37c.12.32.59.31.63.73.06.61-.87.85-1.28,1a2.4,2.4,0,0,1-1.67,0c-.19-.08-1-.4-.61-.66Z"/><path class="cls-48" d="M1388.94,561.47c-.07,1-.15,2.09,1,2.6s2.34-.33,3-1.11c.36-.42.78-.89.6-1.44a16.73,16.73,0,0,0-.78-1.66c-.57-1.31.31-2.84-1.43-3.54a3.15,3.15,0,0,0-2.58.24c-1.19.86-1.21,2.53-1.16,3.85Z"/><path class="cls-48" d="M1306.58,657.35a9,9,0,0,0-2.89,3.89l.31.56a4.07,4.07,0,0,0,1.48,3c2.89,2.23,5.79.46,8.57-.84,3-1.38,6.92-2.81,3.65-6.3-1.5-1.6-3.79-4.28-6.08-4.65-1.21-.2-1.55.31-2.29,1.06a11.63,11.63,0,0,0-2.75,3.31Z"/><path class="cls-48" d="M1342.83,646.27c.08-1,0-2.89,1.14-3.56.9-.55,1.48-.14,2.4,0,2,.38,4.09,1.14,3.49,3.76a4.37,4.37,0,0,1-2.81,2.79c-1.07.29-3.29-.16-3.5-1.47Z"/><path class="cls-48" d="M1365.26,320c-.06,2.77-.1,3,1.6,4.94,1.27,1.5,2.49,3.29,4.41,4,2.52,1,4.66-.53,7-1.06,1.85-.42,2.87-.74,3.81-2.56a17.37,17.37,0,0,0,1.68-6.11c.53-6.45-3.06-13.87-7.81-18-3.12-2.74-7.23-5.62-11.63-4.92a10.3,10.3,0,0,0-8.28,6.66,11.86,11.86,0,0,0,2.17,10.57c.58.67,1.16,1.35,1.73,2a16.45,16.45,0,0,1,1.47,3C1362,319.62,1363.09,320.32,1365.26,320Z"/><path class="cls-48" d="M1363.11,331.67c3,.72,2.51.58,3.84,2.61.59.89,1.07.93,1.28,1.93a3.64,3.64,0,0,1-2.06,3.51c-1,.35-3.18-.74-3.87-1.27-1.07-.81-1.12-1.49-1.1-2.77Z"/><path class="cls-48" d="M1145.33,431.55c.41,2.09.82,4.6,3.49,4.92,1.82.22,3.59-1.67,4.38-3.2a14.15,14.15,0,0,0,.73-8.83c-.79-2.54-4.83-3.76-7.16-3-4.72,1.51-3.83,9.69-2.55,13.15Z"/><path class="cls-48" d="M1151.77,453.65c-.5-.42-2.27-1.44-2.4-2.19-.06-.35.28-.57.32-.88a3.74,3.74,0,0,1,1.35-2.91,5,5,0,0,1,6.16,0,3.08,3.08,0,0,1,1.35,3.77c-.63,1.69-2.9,3.38-4.75,2.5Z"/><path class="cls-48" d="M1460.32,602.07c0,3.86,1.76,7.29,4,10.43,1.44,2,3.09,4.76,5.89,4.65,6.58-.25,5.36-14.07,4.65-18.34a26.53,26.53,0,0,0-4-10.4c-1.26-1.82-4.64-5.06-7-5.18-3.1-.15-5.18,2.75-5.78,5.42-1.41,6.16,2.19,11.59,2.94,17.51Z"/><path class="cls-48" d="M1457.12,602.61c-.53.36-2.95,1.72-3.55,2.69-.42.69-1.11,1.76-.94,2.57A3.34,3.34,0,0,0,1455,610a2.36,2.36,0,0,0,2.24-.3,4.19,4.19,0,0,0,.62-1.89,14.28,14.28,0,0,0,.19-3.15,6.5,6.5,0,0,0-.06-1.52c-.2-.79-.8-.82-1.24-1.31Z"/><path class="cls-48" d="M1467.38,633h2.26c.21.78.88,1.51.39,2.31a3.91,3.91,0,0,1-2.28,1.22,2,2,0,0,1-2.11-1.17c-.41-1,.28-1.81,1.1-2.39Z"/><path class="cls-48" d="M1399.61,711.57c.12,1,.33,1.78,1.41,2.18a3.08,3.08,0,0,0,4-1.36c1-2,1.53-5.67,0-7.64-.92-1.24-3.43-2-4.44-.55a11.71,11.71,0,0,0-1.48,2.59,7,7,0,0,0,.38,4.52Z"/><path class="cls-48" d="M1257.5,223.71a2.85,2.85,0,0,0-.37,2.16,3.92,3.92,0,0,0,1.52,2.59c1.84,1.19,5,1.08,7.14.65a5.63,5.63,0,0,0,4.14-3,7.22,7.22,0,0,0,.79-6c-.66-2.22-1.77-3.53-4.13-4a15.09,15.09,0,0,0-6.24-.06,5,5,0,0,0-3.42,3.08C1256.25,220.69,1255.58,223,1257.5,223.71Z"/><path class="cls-48" d="M1275,223.49c-.21-.55-.61-1.13-.08-1.56a4,4,0,0,1,3.11-.17,3.47,3.47,0,0,1,1.7,1.7,2.33,2.33,0,0,1-.39,1.61,2,2,0,0,1-2,1.13c-.59-.07-2-.15-2.12-.92Z"/><path class="cls-48" d="M1199.18,175.42a3.89,3.89,0,0,0,1.58,2.08,10.83,10.83,0,0,0,4.51,1.65,9.89,9.89,0,0,0,6.19-.89,4,4,0,0,0,1.49-4.21,8.25,8.25,0,0,0-3.55-4.38c-2.88-1.57-7-2-9.92-.36C1196.09,171.24,1198.39,176.55,1199.18,175.42Z"/><path class="cls-48" d="M1220.14,180.78a2.85,2.85,0,0,1-1.38-.91c.41-.47.3-1.12.77-1.58a2.44,2.44,0,0,1,1.79-.58,2.39,2.39,0,0,1,2.07,1.26c.46.89.2,1.24-.36,2-.4.52-.46.69-1.19.65a7.4,7.4,0,0,1-1.46-.29Z"/></g><path class="cls-50" d="M1292.08,639.28c1.32,2.86.71,6-1.36,6.91s-4.82-.59-6.14-3.45-.71-6,1.36-6.91S1290.76,636.42,1292.08,639.28Z"/><ellipse class="cls-25" cx="1288.33" cy="641.01" rx="3.25" ry="4.49" transform="translate(-150.04 598.84) rotate(-24.77)"/><path class="cls-51" d="M1436.55,559.55c1.32,2.86.54,6-1.74,7.09s-5.21-.41-6.52-3.27-.54-6,1.74-7.08S1435.23,556.69,1436.55,559.55Z"/><path class="cls-48" d="M1435.67,560c1,2.25.43,4.75-1.37,5.58s-4.1-.33-5.14-2.58-.42-4.74,1.38-5.57S1434.64,557.71,1435.67,560Z"/><path class="cls-52" d="M1366.31,591a5.7,5.7,0,1,1-7.57-2.79A5.69,5.69,0,0,1,1366.31,591Z"/><circle class="cls-25" cx="1361.13" cy="593.38" r="4.49"/><circle class="cls-53" cx="1362.78" cy="592.62" r="33.15" transform="translate(-65.78 1001.98) rotate(-39.49)"/><path class="cls-54" d="M1379.36,249.78a26.46,26.46,0,1,1-37.42.62A26.46,26.46,0,0,1,1379.36,249.78Z"/><path class="cls-55" d="M1438.9,553.38a12.79,12.79,0,1,1-18.08.3A12.79,12.79,0,0,1,1438.9,553.38Z"/><path class="cls-56" d="M1294.81,632.93a12.78,12.78,0,1,1-18.07.3A12.79,12.79,0,0,1,1294.81,632.93Z"/></g></g></svg>