<svg xmlns="http://www.w3.org/2000/svg" xmlns:xlink="http://www.w3.org/1999/xlink" viewBox="0 0 509.49 70.4"><defs><style>.cls-1{fill:url(#Degradado_sin_nombre_11);}.cls-2{fill:url(#Degradado_sin_nombre_11-2);}.cls-3{fill:url(#Degradado_sin_nombre_11-3);}.cls-4{fill:url(#Degradado_sin_nombre_11-4);}.cls-5{fill:url(#Degradado_sin_nombre_11-5);}.cls-6{fill:url(#Degradado_sin_nombre_11-6);}.cls-7{fill:url(#Degradado_sin_nombre_11-7);}.cls-8{fill:url(#Degradado_sin_nombre_11-8);}.cls-9{fill:url(#Degradado_sin_nombre_11-9);}.cls-10{fill:url(#Degradado_sin_nombre_11-10);}.cls-11{fill:url(#Degradado_sin_nombre_11-11);}.cls-12{fill:url(#Degradado_sin_nombre_11-12);}.cls-13{fill:url(#Degradado_sin_nombre_11-13);}.cls-14{fill:url(#Degradado_sin_nombre_11-14);}.cls-15{fill:url(#Degradado_sin_nombre_11-15);}.cls-16{fill:url(#Degradado_sin_nombre_11-16);}.cls-17{fill:url(#Degradado_sin_nombre_11-17);}.cls-18{fill:url(#Degradado_sin_nombre_11-18);}.cls-19{fill:url(#Degradado_sin_nombre_11-19);}.cls-20{fill:url(#Degradado_sin_nombre_11-20);}.cls-21{fill:url(#Degradado_sin_nombre_11-21);}.cls-22{fill:url(#Degradado_sin_nombre_4);}.cls-23{fill:url(#Degradado_sin_nombre_4-2);}.cls-24{fill:url(#Degradado_sin_nombre_4-3);}.cls-25{fill:url(#Degradado_sin_nombre_4-4);}.cls-26{fill:url(#Degradado_sin_nombre_4-5);}.cls-27{fill:url(#Degradado_sin_nombre_4-6);}.cls-28{fill:url(#Degradado_sin_nombre_4-7);}.cls-29{fill:url(#Degradado_sin_nombre_4-8);}.cls-30{fill:url(#Degradado_sin_nombre_4-9);}.cls-31{fill:url(#Degradado_sin_nombre_4-10);}.cls-32{fill:url(#Degradado_sin_nombre_4-11);}.cls-33{fill:url(#Degradado_sin_nombre_4-12);}.cls-34{fill:url(#Degradado_sin_nombre_4-13);}.cls-35{fill:url(#Degradado_sin_nombre_4-14);}.cls-36{fill:url(#Degradado_sin_nombre_4-15);}.cls-37{fill:url(#Degradado_sin_nombre_4-16);}.cls-38{fill:url(#Degradado_sin_nombre_4-17);}.cls-39{fill:url(#Degradado_sin_nombre_4-18);}.cls-40{fill:url(#Degradado_sin_nombre_4-19);}.cls-41{fill:url(#Degradado_sin_nombre_4-20);}.cls-42{fill:url(#Degradado_sin_nombre_4-21);}.cls-43{fill:#fff;}</style><linearGradient id="Degradado_sin_nombre_11" x1="7.19" y1="62.13" x2="58.93" y2="62.13" gradientUnits="userSpaceOnUse"><stop offset="0" stop-color="#9c0f33"/><stop offset="1" stop-color="#6f0d27"/></linearGradient><linearGradient id="Degradado_sin_nombre_11-2" x1="65.62" y1="59.8" x2="125.91" y2="59.8" xlink:href="#Degradado_sin_nombre_11"/><linearGradient id="Degradado_sin_nombre_11-3" x1="132.49" y1="58.79" x2="147.09" y2="58.79" xlink:href="#Degradado_sin_nombre_11"/><linearGradient id="Degradado_sin_nombre_11-4" x1="150.78" y1="58.12" x2="179.54" y2="58.12" xlink:href="#Degradado_sin_nombre_11"/><linearGradient id="Degradado_sin_nombre_11-5" x1="186.07" y1="55.51" x2="245.13" y2="55.51" xlink:href="#Degradado_sin_nombre_11"/><linearGradient id="Degradado_sin_nombre_11-6" x1="249.31" y1="53.43" x2="309.6" y2="53.43" xlink:href="#Degradado_sin_nombre_11"/><linearGradient id="Degradado_sin_nombre_11-7" x1="316.18" y1="52.26" x2="330.78" y2="52.26" xlink:href="#Degradado_sin_nombre_11"/><linearGradient id="Degradado_sin_nombre_11-8" x1="331.97" y1="50.87" x2="369.81" y2="50.87" xlink:href="#Degradado_sin_nombre_11"/><linearGradient id="Degradado_sin_nombre_11-9" x1="380.4" y1="48.66" x2="434.28" y2="48.66" xlink:href="#Degradado_sin_nombre_11"/><linearGradient id="Degradado_sin_nombre_11-10" x1="440" y1="46.65" x2="501.49" y2="46.65" xlink:href="#Degradado_sin_nombre_11"/><linearGradient id="Degradado_sin_nombre_11-11" x1="0" y1="27.44" x2="58.58" y2="27.44" xlink:href="#Degradado_sin_nombre_11"/><linearGradient id="Degradado_sin_nombre_11-12" x1="69.65" y1="25.49" x2="116.67" y2="25.49" xlink:href="#Degradado_sin_nombre_11"/><linearGradient id="Degradado_sin_nombre_11-13" x1="130.49" y1="23.33" x2="177.03" y2="23.33" xlink:href="#Degradado_sin_nombre_11"/><linearGradient id="Degradado_sin_nombre_11-14" x1="183.69" y1="21.08" x2="242.1" y2="21.08" xlink:href="#Degradado_sin_nombre_11"/><linearGradient id="Degradado_sin_nombre_11-15" x1="258.19" y1="18.79" x2="295.75" y2="18.79" xlink:href="#Degradado_sin_nombre_11"/><linearGradient id="Degradado_sin_nombre_11-16" x1="314.18" y1="16.8" x2="344.39" y2="16.8" xlink:href="#Degradado_sin_nombre_11"/><linearGradient id="Degradado_sin_nombre_11-17" x1="353.21" y1="15.41" x2="367.81" y2="15.41" xlink:href="#Degradado_sin_nombre_11"/><linearGradient id="Degradado_sin_nombre_11-18" x1="378.4" y1="14.52" x2="430.02" y2="14.52" xlink:href="#Degradado_sin_nombre_11"/><linearGradient id="Degradado_sin_nombre_11-19" x1="440.66" y1="11.88" x2="494.84" y2="11.88" xlink:href="#Degradado_sin_nombre_11"/><linearGradient id="Degradado_sin_nombre_11-20" x1="211.36" y1="33.52" x2="243.13" y2="33.52" xlink:href="#Degradado_sin_nombre_11"/><linearGradient id="Degradado_sin_nombre_11-21" x1="36.63" y1="46.39" x2="58.58" y2="46.39" xlink:href="#Degradado_sin_nombre_11"/><linearGradient id="Degradado_sin_nombre_4" x1="15.19" y1="59.13" x2="66.93" y2="59.13" gradientUnits="userSpaceOnUse"><stop offset="0" stop-color="#2676b3"/><stop offset="1" stop-color="#1e498d"/></linearGradient><linearGradient id="Degradado_sin_nombre_4-2" x1="73.62" y1="56.8" x2="133.91" y2="56.8" xlink:href="#Degradado_sin_nombre_4"/><linearGradient id="Degradado_sin_nombre_4-3" x1="140.49" y1="55.79" x2="155.09" y2="55.79" xlink:href="#Degradado_sin_nombre_4"/><linearGradient id="Degradado_sin_nombre_4-4" x1="158.78" y1="55.12" x2="187.54" y2="55.12" xlink:href="#Degradado_sin_nombre_4"/><linearGradient id="Degradado_sin_nombre_4-5" x1="194.07" y1="52.51" x2="253.13" y2="52.51" xlink:href="#Degradado_sin_nombre_4"/><linearGradient id="Degradado_sin_nombre_4-6" x1="257.31" y1="50.43" x2="317.6" y2="50.43" xlink:href="#Degradado_sin_nombre_4"/><linearGradient id="Degradado_sin_nombre_4-7" x1="324.18" y1="49.26" x2="338.78" y2="49.26" xlink:href="#Degradado_sin_nombre_4"/><linearGradient id="Degradado_sin_nombre_4-8" x1="339.97" y1="47.87" x2="377.81" y2="47.87" xlink:href="#Degradado_sin_nombre_4"/><linearGradient id="Degradado_sin_nombre_4-9" x1="388.4" y1="45.66" x2="442.28" y2="45.66" xlink:href="#Degradado_sin_nombre_4"/><linearGradient id="Degradado_sin_nombre_4-10" x1="448" y1="43.65" x2="509.49" y2="43.65" xlink:href="#Degradado_sin_nombre_4"/><linearGradient id="Degradado_sin_nombre_4-11" x1="8" y1="24.44" x2="66.58" y2="24.44" xlink:href="#Degradado_sin_nombre_4"/><linearGradient id="Degradado_sin_nombre_4-12" x1="77.65" y1="22.49" x2="124.67" y2="22.49" xlink:href="#Degradado_sin_nombre_4"/><linearGradient id="Degradado_sin_nombre_4-13" x1="138.49" y1="20.33" x2="185.03" y2="20.33" xlink:href="#Degradado_sin_nombre_4"/><linearGradient id="Degradado_sin_nombre_4-14" x1="191.69" y1="18.08" x2="250.1" y2="18.08" xlink:href="#Degradado_sin_nombre_4"/><linearGradient id="Degradado_sin_nombre_4-15" x1="266.19" y1="15.79" x2="303.75" y2="15.79" xlink:href="#Degradado_sin_nombre_4"/><linearGradient id="Degradado_sin_nombre_4-16" x1="322.18" y1="13.8" x2="352.39" y2="13.8" xlink:href="#Degradado_sin_nombre_4"/><linearGradient id="Degradado_sin_nombre_4-17" x1="361.21" y1="12.41" x2="375.81" y2="12.41" xlink:href="#Degradado_sin_nombre_4"/><linearGradient id="Degradado_sin_nombre_4-18" x1="386.4" y1="11.52" x2="438.02" y2="11.52" xlink:href="#Degradado_sin_nombre_4"/><linearGradient id="Degradado_sin_nombre_4-19" x1="448.66" y1="8.88" x2="502.84" y2="8.88" xlink:href="#Degradado_sin_nombre_4"/><linearGradient id="Degradado_sin_nombre_4-20" x1="219.36" y1="30.52" x2="251.13" y2="30.52" xlink:href="#Degradado_sin_nombre_4"/><linearGradient id="Degradado_sin_nombre_4-21" x1="44.63" y1="43.39" x2="66.58" y2="43.39" xlink:href="#Degradado_sin_nombre_4"/></defs><g id="Capa_2" data-name="Capa 2"><g id="Capa_2-2" data-name="Capa 2"><g id="Abajo"><path class="cls-1" d="M16.56,66.34a31,31,0,0,0,15.59,3.89,30,30,0,0,0,18.27-5.59A26.17,26.17,0,0,0,58.93,54l-20.3,1.44A14.5,14.5,0,0,1,32,57a15.78,15.78,0,0,1-4.8-.7l-20,1.43A27.4,27.4,0,0,0,16.56,66.34Z"/><polygon class="cls-2" points="80.91 69.8 84.49 59.21 106.87 59.21 110.45 69.8 125.91 69.8 118.67 49.79 71.65 53.13 65.62 69.8 80.91 69.8"/><polygon class="cls-3" points="147.09 69.8 147.09 47.77 132.49 48.81 132.49 69.8 147.09 69.8"/><polygon class="cls-4" points="163.06 69.8 179.54 69.8 165.92 46.43 150.78 47.51 163.06 69.8"/><path class="cls-5" d="M200.42,66.34a31.84,31.84,0,0,0,15.84,3.89,30.61,30.61,0,0,0,13.5-2.9,29.16,29.16,0,0,0,9.86-7.6,28.75,28.75,0,0,0,5.51-10.17V40.8l-31.77,2.26v3.69h18.53a15.53,15.53,0,0,1-5.42,7.85,14.89,14.89,0,0,1-9.1,2.74q-7.86,0-12.34-4.66a16,16,0,0,1-4.15-8.74L186.07,45a30,30,0,0,0,3.51,10.54A27.66,27.66,0,0,0,200.42,66.34Z"/><polygon class="cls-6" points="264.6 69.8 268.18 59.21 290.56 59.21 294.14 69.8 309.6 69.8 297.75 37.05 283.46 38.07 286.8 47.94 272.03 47.94 275.13 38.66 260.19 39.73 249.31 69.8 264.6 69.8"/><polygon class="cls-7" points="330.78 69.8 330.78 34.71 316.18 35.74 316.18 69.8 330.78 69.8"/><polygon class="cls-8" points="355.2 69.8 369.81 69.8 369.81 31.93 355.2 32.97 355.2 47 346.39 33.6 331.97 34.62 355.2 69.8"/><path class="cls-9" d="M402.86,69.8a35,35,0,0,0,16.52-3.75,26.79,26.79,0,0,0,11-10.59,31.09,31.09,0,0,0,3.88-15.63A32.52,32.52,0,0,0,432,27.51l-15.78,1.12c2.11,2.9,3.18,6.62,3.18,11.2q0,8.28-4.61,12.81t-12.89,4.53H395v-27l-14.6,1V69.8Z"/><path class="cls-10" d="M444.15,55.5a29.29,29.29,0,0,0,11.18,11,32.45,32.45,0,0,0,31,0,29,29,0,0,0,11.1-11,30.86,30.86,0,0,0,4.1-15.84,30.88,30.88,0,0,0-4.06-15.8c-.19-.33-.39-.64-.59-1l-18,1.28a14.29,14.29,0,0,1,3.49,2.8q4.31,4.74,4.31,12.68T482.32,52.3a14.71,14.71,0,0,1-11.49,4.78q-7.26,0-11.57-4.74T455,39.66q0-8,4.31-12.73a14.74,14.74,0,0,1,1.6-1.47l-18.2,1.29A31.16,31.16,0,0,0,440,39.66,30.6,30.6,0,0,0,444.15,55.5Z"/></g><g id="Arriba"><path class="cls-11" d="M19,46.3q-4.18-4.69-4.18-12.56T19,21.19A14,14,0,0,1,30,16.49a14.33,14.33,0,0,1,7.48,2,13,13,0,0,1,5.08,5.72h16A27,27,0,0,0,48.42,8.81,29.81,29.81,0,0,0,30.15,3.17,31.12,31.12,0,0,0,14.56,7.06,27.46,27.46,0,0,0,3.84,17.9,32.24,32.24,0,0,0,0,33.74a32,32,0,0,0,3.84,15.8c.42.76.88,1.47,1.35,2.18l20-1.43A13.52,13.52,0,0,1,19,46.3Z"/><path class="cls-12" d="M102.22,3.85H85.31L69.65,47.13l47-3.34ZM86.34,41.94,93.68,20l7.43,22Z"/><path class="cls-13" d="M145.09,41.17h3.5l.19.34,15.14-1.08-.21-.37a18.18,18.18,0,0,0,9.95-6.66A17.9,17.9,0,0,0,177,22.73a19,19,0,0,0-2.48-9.61,17.08,17.08,0,0,0-7.47-6.79A27,27,0,0,0,155,3.85H130.49v39l14.6-1Zm0-25.19h9q4,0,6,2a7.16,7.16,0,0,1,2,5.38,7.41,7.41,0,0,1-2,5.55q-2,2-6,2h-9Z"/><path class="cls-14" d="M198.55,33.74q0-7.77,4.27-12.42a14.69,14.69,0,0,1,11.36-4.66,15.27,15.27,0,0,1,7.13,1.58A11,11,0,0,1,226,22.81H242.1a24.53,24.53,0,0,0-9.78-14.43q-7.38-5.21-18.14-5.21a31.68,31.68,0,0,0-15.8,3.89,27.66,27.66,0,0,0-10.8,10.84,31.84,31.84,0,0,0-3.89,15.84,37.42,37.42,0,0,0,.38,5.26l14.81-1.06A26.5,26.5,0,0,1,198.55,33.74Z"/><polygon class="cls-15" points="277.37 19.99 281.46 32.07 295.75 31.05 285.91 3.85 269 3.85 258.19 33.73 273.13 32.66 277.37 19.99"/><polygon class="cls-16" points="328.78 26.83 329.97 28.62 344.39 27.6 328.78 3.85 314.18 3.85 314.18 29.75 328.78 28.71 328.78 26.83"/><polygon class="cls-17" points="367.81 3.85 353.2 3.85 353.2 26.97 367.81 25.93 367.81 3.85"/><path class="cls-18" d="M393,16.32h6.92q8.28,0,12.89,4.61a14.46,14.46,0,0,1,1.43,1.7L430,21.51a28,28,0,0,0-1.62-3.35,26.84,26.84,0,0,0-11-10.55,34.88,34.88,0,0,0-16.56-3.76H378.4V25.18l14.6-1Z"/><path class="cls-19" d="M468.83,16.24a16,16,0,0,1,8,1.94l18-1.28a28.81,28.81,0,0,0-10.51-10,32.53,32.53,0,0,0-31,0,29.47,29.47,0,0,0-11.18,10.93,30.37,30.37,0,0,0-1.49,2.89l18.2-1.29A15.4,15.4,0,0,1,468.83,16.24Z"/><polygon class="cls-20" points="243.13 29.99 211.36 29.99 211.36 37.06 243.13 34.8 243.13 29.99"/><path class="cls-21" d="M58.58,43.31h-16A13,13,0,0,1,37.45,49c-.27.16-.54.31-.82.45L56.93,48A31.37,31.37,0,0,0,58.58,43.31Z"/></g><g id="Abajo-2" data-name="Abajo"><path class="cls-22" d="M24.56,63.34a31,31,0,0,0,15.59,3.89,30,30,0,0,0,18.27-5.59A26.17,26.17,0,0,0,66.93,51l-20.3,1.44A14.5,14.5,0,0,1,40,54a15.78,15.78,0,0,1-4.8-.7l-20,1.43A27.4,27.4,0,0,0,24.56,63.34Z"/><polygon class="cls-23" points="88.91 66.8 92.49 56.21 114.87 56.21 118.45 66.8 133.91 66.8 126.67 46.79 79.65 50.13 73.62 66.8 88.91 66.8"/><polygon class="cls-24" points="155.09 66.8 155.09 44.77 140.49 45.81 140.49 66.8 155.09 66.8"/><polygon class="cls-25" points="171.06 66.8 187.54 66.8 173.92 43.43 158.78 44.51 171.06 66.8"/><path class="cls-26" d="M208.42,63.34a31.84,31.84,0,0,0,15.84,3.89,30.61,30.61,0,0,0,13.5-2.9,29.16,29.16,0,0,0,9.86-7.6,28.75,28.75,0,0,0,5.51-10.17V37.8l-31.77,2.26v3.69h18.53a15.53,15.53,0,0,1-5.42,7.85,14.89,14.89,0,0,1-9.1,2.74q-7.86,0-12.34-4.66a16,16,0,0,1-4.15-8.74L194.07,42a30,30,0,0,0,3.51,10.54A27.66,27.66,0,0,0,208.42,63.34Z"/><polygon class="cls-27" points="272.6 66.8 276.18 56.21 298.56 56.21 302.14 66.8 317.6 66.8 305.75 34.05 291.46 35.07 294.8 44.94 280.03 44.94 283.13 35.66 268.19 36.73 257.31 66.8 272.6 66.8"/><polygon class="cls-28" points="338.78 66.8 338.78 31.71 324.18 32.74 324.18 66.8 338.78 66.8"/><polygon class="cls-29" points="363.2 66.8 377.81 66.8 377.81 28.93 363.2 29.97 363.2 44 354.39 30.6 339.97 31.62 363.2 66.8"/><path class="cls-30" d="M410.86,66.8a35,35,0,0,0,16.52-3.75,26.79,26.79,0,0,0,11-10.59,31.09,31.09,0,0,0,3.88-15.63A32.52,32.52,0,0,0,440,24.51l-15.78,1.12c2.11,2.9,3.18,6.62,3.18,11.2q0,8.28-4.61,12.81t-12.89,4.53H403v-27l-14.6,1V66.8Z"/><path class="cls-31" d="M452.15,52.5a29.29,29.29,0,0,0,11.18,11,32.45,32.45,0,0,0,31,0,29,29,0,0,0,11.1-11,30.86,30.86,0,0,0,4.1-15.84,30.88,30.88,0,0,0-4.06-15.8c-.19-.33-.39-.64-.59-1l-18,1.28a14.29,14.29,0,0,1,3.49,2.8q4.31,4.74,4.31,12.68T490.32,49.3a14.71,14.71,0,0,1-11.49,4.78q-7.26,0-11.57-4.74T463,36.66q0-8,4.31-12.73a14.74,14.74,0,0,1,1.6-1.47l-18.2,1.29A31.16,31.16,0,0,0,448,36.66,30.6,30.6,0,0,0,452.15,52.5Z"/></g><g id="Arriba-2" data-name="Arriba"><path class="cls-32" d="M27,43.3q-4.18-4.69-4.18-12.56T27,18.19A14,14,0,0,1,38,13.49a14.33,14.33,0,0,1,7.48,2,13,13,0,0,1,5.08,5.72h16A27,27,0,0,0,56.42,5.81,29.81,29.81,0,0,0,38.15.17,31.12,31.12,0,0,0,22.56,4.06,27.46,27.46,0,0,0,11.84,14.9,32.24,32.24,0,0,0,8,30.74a32,32,0,0,0,3.84,15.8c.42.76.88,1.47,1.35,2.18l20-1.43A13.52,13.52,0,0,1,27,43.3Z"/><path class="cls-33" d="M110.22.85H93.31L77.65,44.13l47-3.34ZM94.34,38.94,101.68,17l7.43,22Z"/><path class="cls-34" d="M153.09,38.17h3.5l.19.34,15.14-1.08-.21-.37a18.18,18.18,0,0,0,9.95-6.66A17.9,17.9,0,0,0,185,19.73a19,19,0,0,0-2.48-9.61,17.08,17.08,0,0,0-7.47-6.79A27,27,0,0,0,163,.85H138.49v39l14.6-1Zm0-25.19h9q4,0,6,2a7.16,7.16,0,0,1,2,5.38,7.41,7.41,0,0,1-2,5.55q-2,2-6,2h-9Z"/><path class="cls-35" d="M206.55,30.74q0-7.77,4.27-12.42a14.69,14.69,0,0,1,11.36-4.66,15.27,15.27,0,0,1,7.13,1.58A11,11,0,0,1,234,19.81H250.1a24.53,24.53,0,0,0-9.78-14.43Q232.94.17,222.18.17a31.68,31.68,0,0,0-15.8,3.89,27.66,27.66,0,0,0-10.8,10.84,31.84,31.84,0,0,0-3.89,15.84,37.42,37.42,0,0,0,.38,5.26l14.81-1.06A26.5,26.5,0,0,1,206.55,30.74Z"/><polygon class="cls-36" points="285.37 16.99 289.46 29.07 303.75 28.05 293.91 0.85 277 0.85 266.19 30.73 281.13 29.66 285.37 16.99"/><polygon class="cls-37" points="336.78 23.83 337.97 25.62 352.39 24.6 336.78 0.85 322.18 0.85 322.18 26.75 336.78 25.71 336.78 23.83"/><polygon class="cls-38" points="375.81 0.85 361.2 0.85 361.2 23.97 375.81 22.93 375.81 0.85"/><path class="cls-39" d="M401,13.32h6.92q8.28,0,12.89,4.61a14.46,14.46,0,0,1,1.43,1.7L438,18.51a28,28,0,0,0-1.62-3.35,26.84,26.84,0,0,0-11-10.55A34.88,34.88,0,0,0,408.86.85H386.4V22.18l14.6-1Z"/><path class="cls-40" d="M476.83,13.24a16,16,0,0,1,8,1.94l18-1.28a28.81,28.81,0,0,0-10.51-10,32.53,32.53,0,0,0-31,0,29.47,29.47,0,0,0-11.18,10.93,30.37,30.37,0,0,0-1.49,2.89l18.2-1.29A15.4,15.4,0,0,1,476.83,13.24Z"/><polygon class="cls-41" points="251.13 26.99 219.36 26.99 219.36 34.06 251.13 31.8 251.13 26.99"/><path class="cls-42" d="M66.58,40.31h-16A13,13,0,0,1,45.45,46c-.27.16-.54.31-.82.45L64.93,45A31.37,31.37,0,0,0,66.58,40.31Z"/></g><g id="Abajo-3" data-name="Abajo"><path class="cls-43" d="M20.56,64.34a31,31,0,0,0,15.59,3.89,30,30,0,0,0,18.27-5.59A26.17,26.17,0,0,0,62.93,52l-20.3,1.44A14.5,14.5,0,0,1,36,55a15.78,15.78,0,0,1-4.8-.7l-20,1.43A27.4,27.4,0,0,0,20.56,64.34Z"/><polygon class="cls-43" points="84.91 67.8 88.49 57.21 110.87 57.21 114.45 67.8 129.91 67.8 122.67 47.79 75.65 51.13 69.62 67.8 84.91 67.8"/><polygon class="cls-43" points="151.09 67.8 151.09 45.77 136.49 46.81 136.49 67.8 151.09 67.8"/><polygon class="cls-43" points="167.06 67.8 183.54 67.8 169.92 44.43 154.78 45.51 167.06 67.8"/><path class="cls-43" d="M204.42,64.34a31.84,31.84,0,0,0,15.84,3.89,30.61,30.61,0,0,0,13.5-2.9,29.16,29.16,0,0,0,9.86-7.6,28.75,28.75,0,0,0,5.51-10.17V38.8l-31.77,2.26v3.69h18.53a15.53,15.53,0,0,1-5.42,7.85,14.89,14.89,0,0,1-9.1,2.74q-7.86,0-12.34-4.66a16,16,0,0,1-4.15-8.74L190.07,43a30,30,0,0,0,3.51,10.54A27.66,27.66,0,0,0,204.42,64.34Z"/><polygon class="cls-43" points="268.6 67.8 272.18 57.21 294.56 57.21 298.14 67.8 313.6 67.8 301.75 35.05 287.46 36.07 290.8 45.94 276.03 45.94 279.13 36.66 264.19 37.73 253.31 67.8 268.6 67.8"/><polygon class="cls-43" points="334.78 67.8 334.78 32.71 320.18 33.74 320.18 67.8 334.78 67.8"/><polygon class="cls-43" points="359.2 67.8 373.81 67.8 373.81 29.93 359.2 30.97 359.2 45 350.39 31.6 335.97 32.62 359.2 67.8"/><path class="cls-43" d="M406.86,67.8a35,35,0,0,0,16.52-3.75,26.79,26.79,0,0,0,11-10.59,31.09,31.09,0,0,0,3.88-15.63A32.52,32.52,0,0,0,436,25.51l-15.78,1.12c2.11,2.9,3.18,6.62,3.18,11.2q0,8.28-4.61,12.81t-12.89,4.53H399v-27l-14.6,1V67.8Z"/><path class="cls-43" d="M448.15,53.5a29.29,29.29,0,0,0,11.18,11,32.45,32.45,0,0,0,31,0,29,29,0,0,0,11.1-11,30.86,30.86,0,0,0,4.1-15.84,30.88,30.88,0,0,0-4.06-15.8c-.19-.33-.39-.64-.59-1l-18,1.28a14.29,14.29,0,0,1,3.49,2.8q4.31,4.74,4.31,12.68T486.32,50.3a14.71,14.71,0,0,1-11.49,4.78q-7.26,0-11.57-4.74T459,37.66q0-8,4.31-12.73a14.74,14.74,0,0,1,1.6-1.47l-18.2,1.29A31.16,31.16,0,0,0,444,37.66,30.6,30.6,0,0,0,448.15,53.5Z"/></g><g id="Arriba-3" data-name="Arriba"><path class="cls-43" d="M23,44.3q-4.18-4.69-4.18-12.56T23,19.19A14,14,0,0,1,34,14.49a14.33,14.33,0,0,1,7.48,2,13,13,0,0,1,5.08,5.72h16A27,27,0,0,0,52.42,6.81,29.81,29.81,0,0,0,34.15,1.17,31.12,31.12,0,0,0,18.56,5.06,27.46,27.46,0,0,0,7.84,15.9,32.24,32.24,0,0,0,4,31.74a32,32,0,0,0,3.84,15.8c.42.76.88,1.47,1.35,2.18l20-1.43A13.52,13.52,0,0,1,23,44.3Z"/><path class="cls-43" d="M106.22,1.85H89.31L73.65,45.13l47-3.34ZM90.34,39.94,97.68,18l7.43,22Z"/><path class="cls-43" d="M149.09,39.17h3.5l.19.34,15.14-1.08-.21-.37a18.18,18.18,0,0,0,9.95-6.66A17.9,17.9,0,0,0,181,20.73a19,19,0,0,0-2.48-9.61,17.08,17.08,0,0,0-7.47-6.79A27,27,0,0,0,159,1.85H134.49v39l14.6-1Zm0-25.19h9q4,0,6,2a7.16,7.16,0,0,1,2,5.38,7.41,7.41,0,0,1-2,5.55q-2,2-6,2h-9Z"/><path class="cls-43" d="M202.55,31.74q0-7.77,4.27-12.42a14.69,14.69,0,0,1,11.36-4.66,15.27,15.27,0,0,1,7.13,1.58A11,11,0,0,1,230,20.81H246.1a24.53,24.53,0,0,0-9.78-14.43q-7.38-5.2-18.14-5.21a31.68,31.68,0,0,0-15.8,3.89,27.66,27.66,0,0,0-10.8,10.84,31.84,31.84,0,0,0-3.89,15.84,37.42,37.42,0,0,0,.38,5.26l14.81-1.06A26.5,26.5,0,0,1,202.55,31.74Z"/><polygon class="cls-43" points="281.37 17.99 285.46 30.07 299.75 29.05 289.91 1.85 273 1.85 262.19 31.73 277.13 30.66 281.37 17.99"/><polygon class="cls-43" points="332.78 24.83 333.97 26.62 348.39 25.6 332.78 1.85 318.18 1.85 318.18 27.75 332.78 26.71 332.78 24.83"/><polygon class="cls-43" points="371.81 1.85 357.2 1.85 357.2 24.97 371.81 23.93 371.81 1.85"/><path class="cls-43" d="M397,14.32h6.92q8.28,0,12.89,4.61a14.46,14.46,0,0,1,1.43,1.7L434,19.51a28,28,0,0,0-1.62-3.35,26.84,26.84,0,0,0-11-10.55,34.88,34.88,0,0,0-16.56-3.76H382.4V23.18l14.6-1Z"/><path class="cls-43" d="M472.83,14.24a16,16,0,0,1,8,1.94l18-1.28a28.81,28.81,0,0,0-10.51-10,32.53,32.53,0,0,0-31,0,29.47,29.47,0,0,0-11.18,10.93,30.37,30.37,0,0,0-1.49,2.89l18.2-1.29A15.4,15.4,0,0,1,472.83,14.24Z"/><polygon class="cls-43" points="247.13 27.99 215.36 27.99 215.36 35.06 247.13 32.8 247.13 27.99"/><path class="cls-43" d="M62.58,41.31h-16A13,13,0,0,1,41.45,47c-.27.16-.54.31-.82.45L60.93,46A31.37,31.37,0,0,0,62.58,41.31Z"/></g></g></g></svg>