<?xml version="1.0" encoding="utf-8"?>
<svg id="ewMDe42c3CR1" xmlns="http://www.w3.org/2000/svg" xmlns:xlink="http://www.w3.org/1999/xlink"
    viewBox="0 0 1080 1080" shape-rendering="geometricPrecision" text-rendering="geometricPrecision"
    style="margin: auto; background: none; display: block; shape-rendering: auto;" width="200px" height="200px">
    <style>
        <![CDATA[
        #ewMDe42c3CR2_to {
            animation: ewMDe42c3CR2_to__to 10000ms linear 1 normal forwards;
            animation-iteration-count: 10000;
        }

        @keyframes ewMDe42c3CR2_to__to {
            0% {
                transform: translate(508px, 540.000031px)
            }

            11% {
                transform: translate(508px, 540.000031px);
                animation-timing-function: cubic-bezier(0.42, 0, 0.58, 1)
            }

            19% {
                transform: translate(255.849995px, 540.000031px)
            }

            30% {
                transform: translate(255.849995px, 540.000031px)
            }

            36% {
                transform: translate(508px, 540.000031px)
            }

            100% {
                transform: translate(508px, 540.000031px)
            }
        }

        #ewMDe42c3CR2 {
            animation: ewMDe42c3CR2_c_o 10000ms linear 1 normal forwards;
            animation-iteration-count: 10000;
        }

        @keyframes ewMDe42c3CR2_c_o {
            0% {
                opacity: 0
            }

            11% {
                opacity: 0
            }

            14% {
                opacity: 1
            }

            30% {
                opacity: 1
            }

            35% {
                opacity: 0
            }

            100% {
                opacity: 0
            }
        }

        #ewMDe42c3CR4_to {
            animation: ewMDe42c3CR4_to__to 10000ms linear 1 normal forwards;
            animation-iteration-count: 10000;
        }

        @keyframes ewMDe42c3CR4_to__to {
            0% {
                transform: translate(540px, 540.050018px)
            }

            11% {
                transform: translate(540px, 540.050018px)
            }

            19% {
                transform: translate(791px, 540.050018px)
            }

            30% {
                transform: translate(791px, 540.050018px)
            }

            35% {
                transform: translate(540px, 540.050018px)
            }

            100% {
                transform: translate(540px, 540.050018px)
            }
        }

        #ewMDe42c3CR4 {
            animation: ewMDe42c3CR4_c_o 10000ms linear 1 normal forwards;
            animation-iteration-count: 10000;
        }

        @keyframes ewMDe42c3CR4_c_o {
            0% {
                opacity: 0
            }

            11% {
                opacity: 0
            }

            19% {
                opacity: 1
            }

            30% {
                opacity: 1
            }

            35% {
                opacity: 0
            }

            100% {
                opacity: 0
            }
        }

        #ewMDe42c3CR41 {
            animation: ewMDe42c3CR41_c_o 10000ms linear 1 normal forwards;
            animation-iteration-count: 10000;
        }

        @keyframes ewMDe42c3CR41_c_o {
            0% {
                opacity: 0
            }

            17% {
                opacity: 0;
                animation-timing-function: cubic-bezier(0.42, 0, 0.58, 1)
            }

            21% {
                opacity: 1
            }

            28% {
                opacity: 1
            }

            33% {
                opacity: 0
            }

            100% {
                opacity: 0
            }
        }

        #ewMDe42c3CR43_to {
            animation: ewMDe42c3CR43_to__to 10000ms linear 1 normal forwards;
            animation-iteration-count: 10000;
        }

        @keyframes ewMDe42c3CR43_to__to {
            0% {
                transform: translate(539.684577px, 540px)
            }

            11% {
                transform: translate(539.684577px, 540px)
            }

            11.1% {
                transform: translate(538.684577px, 540px)
            }

            12% {
                transform: translate(533.239499px, 539.994303px)
            }

            13% {
                transform: translate(509.348142px, 539.987974px)
            }

            14% {
                transform: translate(468.623452px, 539.981645px)
            }

            15% {
                transform: translate(414.698762px, 539.975315px)
            }

            16% {
                transform: translate(364.274072px, 539.968986px)
            }

            17% {
                transform: translate(321.182715px, 539.962656px)
            }

            18% {
                transform: translate(297.091357px, 539.956327px)
            }

            19% {
                transform: translate(289px, 539.949997px)
            }

            30% {
                transform: translate(289px, 539.949997px)
            }

            31% {
                transform: translate(332px, 539.949997px)
            }

            32% {
                transform: translate(373px, 539.949997px)
            }

            33% {
                transform: translate(415px, 539.949997px)
            }

            34% {
                transform: translate(457px, 539.949997px)
            }

            36% {
                transform: translate(540px, 539.949997px)
            }

            100% {
                transform: translate(540px, 539.949997px)
            }
        }

        #ewMDe42c3CR43_tr {
            animation: ewMDe42c3CR43_tr__tr 10000ms linear 1 normal forwards;
            animation-iteration-count: 10000;
        }

        @keyframes ewMDe42c3CR43_tr__tr {
            0% {
                transform: rotate(-360.000002deg)
            }

            1% {
                transform: rotate(-360.000002deg);
                animation-timing-function: cubic-bezier(0.42, 0, 0.58, 1)
            }

            10% {
                transform: rotate(0deg);
                animation-timing-function: cubic-bezier(0.42, 0, 0.58, 1)
            }

            31% {
                transform: rotate(0deg);
                animation-timing-function: cubic-bezier(0.42, 0, 0.58, 1)
            }

            44% {
                transform: rotate(359.999998deg)
            }

            100% {
                transform: rotate(359.999998deg)
            }
        }

        #ewMDe42c3CR43 {
            animation: ewMDe42c3CR43_c_o 10000ms linear 1 normal forwards;
            animation-iteration-count: 10000;
        }

        @keyframes ewMDe42c3CR43_c_o {
            0% {
                opacity: 0
            }

            5% {
                opacity: 1
            }

            40% {
                opacity: 1
            }

            44% {
                opacity: 0
            }

            100% {
                opacity: 0
            }
        }
        ]]>
    </style>
    <g id="ewMDe42c3CR2_to" transform="translate(508,540.000031)">
        <g id="ewMDe42c3CR2" transform="translate(-255.849995,-540.000031)" opacity="0">
            <path
                d="M446.1,674c2.5,4.2,3.9,9.1,3.9,14.4c0,7.9-3.2,14.9-8.3,20.1-.2.2-.4.4-.5.5-.5.4-1,.9-1.5,1.3-.1.1-.2.2-.3.2-36.8,32.5-84.2,53.2-136.3,56.4-4.7.3-9.3.4-14.1.4C163.5,767.3,61.7,665.6,61.7,540s101.8-227.3,227.3-227.3c4.7,0,9.4.1,14.1.4c52.2,3.2,99.7,24,136.5,56.6c0,0,0,0,0,0c.5.4,1,.9,1.5,1.3c5.5,5.2,8.9,12.5,8.9,20.6c0,5.2-1.4,10.1-3.9,14.4-.6,1-1.3,1.9-1.9,2.9-7.8,11.1-18.1,20.2-30.1,26.6-.3.2-.7.4-1,.5-.3.2-.6.3-.9.4-3.7,1.7-7.7,2.7-12.1,2.7-6.9,0-13.2-2.4-18.1-6.5c0,0,0,0,0,0-22.8-19.7-52-32.4-84-34.4-3-.2-6-.3-9-.3-78.5,0-142.1,63.6-142.1,142.1s63.6,142.1,142.1,142.1c3,0,6-.1,9-.3c31.6-2,60.3-14.3,83-33.5.3-.3.7-.6,1-.9c4.9-4.1,11.2-6.5,18.1-6.5c3.9,0,7.7.8,11.1,2.2.3.1.7.3,1,.5.3.1.6.3.9.4.3.2.7.3,1,.5.1,0,.1.1.2.1c12,6.3,22.2,15.5,29.9,26.5.6,1,1.3,2,1.9,2.9Z"
                fill="#fff" />
        </g>
    </g>
    <g id="ewMDe42c3CR4_to" transform="translate(540,540.050018)">
        <g id="ewMDe42c3CR4" transform="translate(-791,-540.050018)" opacity="0">
            <g>
                <g>
                    <path
                        d="M563.6,498.1c0-21.5,15.9-38.1,38.1-38.1c17.4,0,32.1,11.4,35.6,27.6h-15.2c-2.6-8.3-10.8-13.6-20.4-13.6-14.3,0-23.8,9.9-23.8,24.1c0,14,9.4,24,23.8,24c9.6,0,17.8-5.2,20.4-13.5h15.2c-3.5,16.1-18.1,27.6-35.6,27.6-22.2,0-38.1-16.7-38.1-38.1Z"
                        fill="#fff" />
                </g>
                <g>
                    <path
                        d="M669,509.3h-8.9v25.4h-14.4v-73.3h14.4h13.3c13.5,0,24.4,10.9,24.4,24.3c0,9.1-5.7,17.3-13.7,21.1l22.6,27.8h-17L669,509.3Zm-8.9-12.6h13.3c5.4,0,9.9-4.8,9.9-10.9s-4.5-10.8-9.9-10.8h-13.3v21.7Z"
                        fill="#fff" />
                </g>
                <g>
                    <path d="M755.1,521v13.8h-38.7-4.7v-73.3h14.4h28.5v13.8h-28.5v15.7h25.9v13.5h-25.9v16.5h29Z"
                        fill="#fff" />
                </g>
                <g>
                    <path
                        d="M806.7,521.6h-28l-4.2,13.2h-15.6l24.9-73.3h17.9l24.9,73.3h-15.7l-4.2-13.2Zm-4.3-13.5l-9.7-30.6-9.7,30.6h19.4Z"
                        fill="#fff" />
                </g>
                <g>
                    <path d="M872.6,475.3h-17.7v59.4h-14.4v-59.4h-17.6v-13.8h32h17.7v13.8Z" fill="#fff" />
                </g>
                <g>
                    <path d="M895.1,461.5v73.3h-14.4v-73.3h14.4Z" fill="#fff" />
                </g>
                <g>
                    <path d="M902.2,461.5h15.6L935,517.9l17.2-56.4h15.7L944,534.8h-17.9l-23.9-73.3Z" fill="#fff" />
                </g>
                <g>
                    <path d="M1018.3,521v13.8h-38.7-4.7v-73.3h14.4h28.5v13.8h-28.5v15.7h25.9v13.5h-25.9v16.5h29Z"
                        fill="#fff" />
                </g>
            </g>
            <g>
                <g>
                    <path
                        d="M563.6,590.8c0-16.4,12.2-29.2,29.2-29.2c13.3,0,24.6,8.7,27.3,21.2h-11.6c-2-6.3-8.3-10.4-15.6-10.4-11,0-18.2,7.6-18.2,18.4c0,10.7,7.2,18.4,18.2,18.4c7.4,0,13.6-4,15.6-10.3h11.6c-2.6,12.3-13.9,21.2-27.3,21.2-17-.2-29.2-13-29.2-29.3Z"
                        fill="#fff" />
                </g>
                <g>
                    <path d="M667.2,562.7v56.1h-11.1v-23.6h-18.6v23.6h-11.1v-56.1h11.1v22h18.6v-22h11.1Z" fill="#fff" />
                </g>
                <g>
                    <path
                        d="M695.5,599.3h-6.8v19.5h-11.1v-56.1h11.1h10.2c10.3,0,18.7,8.3,18.7,18.6c0,7-4.3,13.2-10.5,16.2l17.3,21.3h-13l-15.9-19.5Zm-6.8-9.7h10.2c4.2,0,7.6-3.7,7.6-8.3c0-4.7-3.4-8.3-7.6-8.3h-10.2v16.6Z"
                        fill="#fff" />
                </g>
                <g>
                    <path
                        d="M723.1,590.8c0-16.4,12.9-29.2,29.1-29.2s29.2,12.7,29.2,29.2c0,16.4-13,29.2-29.2,29.2-16.2-.1-29.1-12.9-29.1-29.2Zm47.3,0c0-10.8-7.9-18.4-18.1-18.4s-18.1,7.6-18.1,18.4c0,10.7,7.9,18.4,18.1,18.4c10.1-.1,18.1-7.7,18.1-18.4Z"
                        fill="#fff" />
                </g>
                <g>
                    <path
                        d="M844.1,618.8h-11v-37.7l-12.4,28.7h-8l-12.4-28.7v37.7h-11.1v-56.1h11.1h1.5L816.7,597l14.8-34.3h12.6v56.1Z"
                        fill="#fff" />
                </g>
                <g>
                    <path
                        d="M886.2,608.7h-21.5l-3.2,10.1h-11.9l19.1-56.1h13.7l19.1,56.1h-12l-3.3-10.1Zm-3.3-10.3L875.4,575l-7.5,23.4h15Z"
                        fill="#fff" />
                </g>
                <g>
                    <path d="M936.8,573.3h-13.6v45.5h-11.1v-45.5h-13.5v-10.6h24.5h13.6v10.6Z" fill="#fff" />
                </g>
                <g>
                    <path d="M954,562.7v56.1h-11.1v-56.1h11.1Z" fill="#fff" />
                </g>
                <g>
                    <path
                        d="M961.9,590.8c0-16.4,12.2-29.2,29.2-29.2c13.3,0,24.6,8.7,27.3,21.2h-11.6c-2-6.3-8.3-10.4-15.6-10.4-11,0-18.2,7.6-18.2,18.4c0,10.7,7.2,18.4,18.2,18.4c7.4,0,13.6-4,15.6-10.3h11.6c-2.6,12.3-13.9,21.2-27.3,21.2-17.1-.2-29.2-13-29.2-29.3Z"
                        fill="#fff" />
                </g>
            </g>
        </g>
    </g>
    <g id="ewMDe42c3CR41" opacity="0">
        <rect width="6.3" height="227.3" rx="0" ry="0" transform="translate(503.7 426.7)" fill="#fff" />
    </g>
    <g id="ewMDe42c3CR43_to" transform="translate(539.684577,540)">
        <g id="ewMDe42c3CR43_tr" transform="rotate(-360.000002)">
            <g id="ewMDe42c3CR43" transform="translate(-289,-539.949997)" opacity="0">
                <path
                    d="M293.9,463.1c17.4,1.1,33.2,7.9,45.5,18.6c0,0,0,0,0,0c1.4,1.2,2.7,2.5,4,3.8l46-46c-25.7-25.7-61.2-41.6-100.5-41.6v65c1.8.1,3.4.1,5,.2Z"
                    fill="#1a68ad" />
                <path
                    d="M345.4,487.5c12.8,13.8,20.7,32.2,20.7,52.5h65c0-39.2-15.9-74.8-41.6-100.5l-46,46c.6.7,1.3,1.3,1.9,2Z"
                    fill="#2a8ac4" />
                <path d="M289,463v0-65c-39.2,0-74.8,15.9-100.5,41.6l46,46c14-14,33.2-22.6,54.5-22.6Z" fill="#1b387f" />
                <path
                    d="M366.1,540c0,20.3-7.8,38.7-20.7,52.5-.6.7-1.3,1.3-1.9,2l46,46c25.7-25.7,41.6-61.2,41.6-100.5h-65Z"
                    fill="#a50f36" />
                <path
                    d="M339.5,598.2c0,0,0,.1,0,0-12.4,10.7-28.2,17.6-45.6,18.6-1.6.1-3.2.2-4.9.2v65c39.2,0,74.8-15.9,100.5-41.6l-46-46c-1.3,1.4-2.6,2.6-4,3.8Z"
                    transform="translate(.000001 0.000004)" fill="#990e2f" />
                <path d="M212,540h-65c0,39.2,15.9,74.8,41.6,100.5l46-46c-14-14-22.6-33.2-22.6-54.5Z" fill="#680d25" />
                <path d="M289,617c-21.3,0-40.5-8.6-54.5-22.6l-46,46C214.2,666.1,249.7,682,289,682v-65v0Z"
                    fill="#820f2a" />
                <path d="M234.5,485.5l-46-46c-25.7,25.7-41.6,61.2-41.6,100.5h65c.1-21.3,8.7-40.5,22.6-54.5Z"
                    fill="#15315e" />
                <ellipse rx="99.633752" ry="99.633752" transform="matrix(.776799 0 0 0.776799 289 540)" fill="#fff"
                    stroke-width="0" />
            </g>
        </g>
    </g>
</svg>