<?xml version="1.0" encoding="utf-8"?>
<!-- Generator: Adobe Illustrator 26.0.0, SVG Export Plug-In . SVG Version: 6.00 Build 0)  -->
<svg version="1.1" id="Capa_1" xmlns="http://www.w3.org/2000/svg" xmlns:xlink="http://www.w3.org/1999/xlink" x="0px" y="0px"
	 viewBox="0 0 650 220" style="enable-background:new 0 0 650 220;" xml:space="preserve">
<style type="text/css">
	.st0{fill:#FFFFFF;}
	.st1{fill:#1A68AD;}
	.st2{fill:#2A8AC4;}
	.st3{fill:#1B387F;}
	.st4{fill:#A50F36;}
	.st5{fill:#990E2F;}
	.st6{fill:#680D25;}
	.st7{fill:#820F2A;}
	.st8{fill:#15315E;}
	.st9{fill:#969696;}
</style>
<path class="st0" d="M184.9,166.7c2.8,4.7,2,10.7-1.9,14.6c-0.1,0.1-0.1,0.2-0.2,0.2c-0.2,0.2-0.4,0.4-0.6,0.6c0,0-0.1,0.1-0.1,0.1
	c-16,14.2-36.3,22.6-57.7,23.9c-2,0.1-4,0.2-6,0.2c-53.2,0-96.2-43.1-96.2-96.2s43.1-96.2,96.2-96.2c2,0,4,0.1,6,0.2
	c21.4,1.3,41.8,9.8,57.8,24l0,0c0.2,0.2,0.4,0.4,0.6,0.6c4.1,3.8,4.9,10,2.1,14.8c-0.3,0.4-0.5,0.8-0.8,1.2
	c-3.3,4.7-7.7,8.6-12.8,11.3l-0.4,0.2l-0.4,0.2c-4.2,2-9.2,1.3-12.8-1.6l0,0c-9.9-8.6-22.4-13.7-35.6-14.6c-1.3-0.1-2.5-0.1-3.8-0.1
	c-33.2,0-60.2,26.9-60.2,60.2s26.9,60.2,60.2,60.2c1.3,0,2.6,0,3.8-0.1c12.9-0.8,25.3-5.8,35.1-14.2l0.4-0.4
	c3.5-2.9,8.2-3.5,12.3-1.8l0.4,0.2l0.4,0.2l0.4,0.2h0.1c5.1,2.7,9.4,6.5,12.7,11.2C184.3,165.9,184.6,166.3,184.9,166.7z"/>
<path class="st1" d="M160.9,67.5c-11.3-11.3-26.6-17.6-42.5-17.6V110L160.9,67.5z"/>
<path class="st2" d="M118.4,110h60.2c0-16-6.3-31.3-17.6-42.5L118.4,110z"/>
<path class="st3" d="M118.4,110V49.8c-16,0-31.3,6.3-42.5,17.6L118.4,110z"/>
<path class="st4" d="M178.5,110h-60.2l42.5,42.5C172.2,141.3,178.5,126,178.5,110z"/>
<path class="st5" d="M118.4,170.1c16,0,31.3-6.3,42.5-17.6L118.4,110V170.1z"/>
<path class="st6" d="M58.2,110c0,16,6.3,31.3,17.6,42.5l42.5-42.5H58.2z"/>
<path class="st7" d="M118.4,110l-42.5,42.5c11.3,11.3,26.6,17.6,42.5,17.6V110z"/>
<path class="st8" d="M75.8,67.5C64.5,78.7,58.2,94,58.2,110h60.2L75.8,67.5z"/>
<path class="st0" d="M151,110c0,8.2-3.1,16.2-8.8,22.2c-0.8,0.9-1.6,1.7-2.5,2.4l0,0c-5.4,4.7-12.2,7.5-19.3,7.9
	c-0.7,0-1.4,0.1-2.1,0.1c-18,0-32.6-14.6-32.6-32.6s14.6-32.6,32.6-32.6c0,0,0,0,0,0c0.7,0,1.4,0,2.1,0.1c7.1,0.4,13.9,3.2,19.3,7.9
	l0,0c0.9,0.8,1.7,1.6,2.5,2.4C147.9,93.8,151,101.8,151,110z"/>
<path class="st0" d="M248.9,75.1c0-17.9,13.3-31.8,31.8-31.8c14.5,0,26.8,9.5,29.7,23h-12.6c-2.2-6.9-9-11.3-17-11.3
	c-12,0-19.8,8.3-19.8,20.1s7.9,20,19.8,20c8,0,14.8-4.4,17-11.2h12.6c-2.9,13.4-15.1,23-29.7,23C262.2,106.9,248.9,92.9,248.9,75.1z
	"/>
<path class="st0" d="M336.8,84.4h-7.4v21.2h-12V44.6h23.1c11.2,0,20.3,9,20.3,20.2c0,0,0,0,0,0c-0.1,7.6-4.6,14.4-11.4,17.6
	l18.8,23.2H354L336.8,84.4z M329.3,73.9h11.1c4.5,0,8.3-4,8.3-9.1s-3.8-9-8.3-9h-11.1V73.9z"/>
<path class="st0" d="M408.5,94.1v11.5h-36.2V44.6H408v11.5h-23.7v13.1h21.5v11.2h-21.5v13.7H408.5z"/>
<path class="st0" d="M451.5,94.7h-23.4l-3.5,11h-13l20.8-61.1h14.9l20.7,61h-13L451.5,94.7z M447.9,83.4l-8.1-25.5l-8.1,25.5H447.9z
	"/>
<path class="st0" d="M506.4,56.1h-14.7v49.5h-12V56.1H465V44.6h41.4L506.4,56.1z"/>
<path class="st0" d="M525.2,44.6v61.1h-12V44.6H525.2z"/>
<path class="st0" d="M531.1,44.6h13l14.3,47l14.3-47h13.1l-19.9,61.1H551L531.1,44.6z"/>
<path class="st0" d="M627.9,94.1v11.5h-36.2V44.6h35.8v11.5h-23.7v13.1h21.5v11.2h-21.5v13.7H627.9z"/>
<path class="st0" d="M248.9,152.3c0-13.7,10.2-24.3,24.3-24.3c11.1,0,20.5,7.3,22.7,17.6h-9.7c-1.7-5.3-6.9-8.7-13-8.7
	c-9.2,0-15.2,6.4-15.2,15.4s6,15.3,15.2,15.3c6.1,0,11.4-3.3,13-8.6h9.7c-2.2,10.3-11.6,17.6-22.7,17.6
	C259.1,176.6,248.9,165.9,248.9,152.3z"/>
<path class="st0" d="M335.2,128.9v46.8H326v-19.6h-15.5v19.6h-9.2v-46.8h9.2v18.3H326v-18.3H335.2z"/>
<path class="st0" d="M358.8,159.5h-5.7v16.2h-9.2v-46.8h17.7c8.6,0,15.5,6.9,15.6,15.5c0,0,0,0,0,0c-0.1,5.8-3.5,11-8.8,13.5
	l14.4,17.8h-10.8L358.8,159.5z M353.2,151.4h8.5c3.8-0.3,6.7-3.7,6.3-7.5c-0.3-3.4-3-6-6.3-6.3h-8.5V151.4z"/>
<path class="st0" d="M381.8,152.3c0-13.4,10.9-24.3,24.3-24.3c13.4,0,24.3,10.9,24.3,24.3c0,13.4-10.9,24.3-24.3,24.3c0,0,0,0,0,0
	c-13.3,0.1-24.1-10.6-24.3-23.9C381.8,152.6,381.8,152.5,381.8,152.3z M421.2,152.3c0-9-6.6-15.4-15.1-15.4s-15.1,6.3-15.1,15.4
	s6.6,15.3,15.1,15.3S421.2,161.3,421.2,152.3z"/>
<path class="st0" d="M482.7,175.7h-9.2v-31.4l-10.4,23.9h-6.7l-10.4-23.9v31.4h-9.2v-46.8h10.5l12.4,28.6l12.4-28.6h10.5
	L482.7,175.7z"/>
<path class="st0" d="M517.8,167.3h-17.9l-2.7,8.4h-10l15.9-46.8h11.4l15.9,46.8h-10L517.8,167.3z M515,158.6l-6.2-19.5l-6.2,19.5
	H515z"/>
<path class="st0" d="M559.9,137.7h-11.3v38h-9.2v-38h-11.2v-8.8h31.7V137.7z"/>
<path class="st0" d="M574.2,128.9v46.8H565v-46.8H574.2z"/>
<path class="st0" d="M580.8,152.3c0-13.7,10.2-24.3,24.3-24.3c11.1,0,20.5,7.3,22.7,17.6h-9.7c-1.7-5.3-6.9-8.7-13-8.7
	c-9.2,0-15.2,6.4-15.2,15.4s6,15.3,15.2,15.3c6.2,0,11.4-3.3,13-8.6h9.7c-2.2,10.3-11.6,17.6-22.7,17.6
	C591,176.6,580.8,165.9,580.8,152.3z"/>
<rect x="221.3" y="63.7" class="st9" width="1.8" height="92.6"/>
</svg>
